<?xml version="1.0" encoding="UTF-8"?>
<svg enable-background="new" version="1.1" viewBox="0 0 1920 2160" xmlns="http://www.w3.org/2000/svg" xmlns:cc="http://creativecommons.org/ns#" xmlns:dc="http://purl.org/dc/elements/1.1/" xmlns:rdf="http://www.w3.org/1999/02/22-rdf-syntax-ns#">
<metadata>
<rdf:RDF>
<cc:Work rdf:about="">
<dc:format>image/svg+xml</dc:format>
<dc:type rdf:resource="http://purl.org/dc/dcmitype/StillImage"/>
<dc:title/>
</cc:Work>
</rdf:RDF>
</metadata>
<g transform="translate(0 274.5)" opacity=".8">
<g fill="none" stroke="#ccc">
<path d="m0-274.5 63.64 47.771 58.589 38.891 65.66 40.911 17.678 57.579 10.607 48.992" stroke-width="1px"/>
<path d="m64.145-224.71 58.589-46.972-1.0102 81.822 51.518-29.294-50.508-52.528" stroke-width="1px"/>
<path d="m173.24-219.15 27.274-52.023 106.07 28.789-12.627-36.365" stroke-width="1px"/>
<path d="m306.58-242.39 68.185-28.789 34.345-27.274" stroke-width="1px"/>
<path d="m306.58-242.39 118.69-15.152 96.47-13.132 8.0812-9.0914" stroke-width="1px"/>
<path d="m64.145-224.71-12.627-56.569" stroke-width="1px"/>
<path d="m64.145-224.71 0.50508 72.731 57.074-37.881 114.65 25.759-63.135-55.053 84.853-19.698-57.579-32.325" stroke-width="1px"/>
<path d="m258.09-238.85 55.053 28.284 70.206 47.982 34.345 38.386" stroke-width="1px"/>
<path d="m383.35-162.58 51.013-38.891 23.739-17.678 63.64-51.518" stroke-width="1px"/>
<path d="m456.08-218.14 124.92-56.357l-32.992 62.418z" stroke-width="1px"/>
<path d="m526.29-165.61-31.315 56.569-111.62-53.538z" stroke-width="1px"/>
<path d="m526.29-165.61-70.206-52.528" stroke-width="1px"/>
<path d="m306.58-242.39 149.5 24.244" stroke-width="1px"/>
<path d="m306.58-242.39 70.711 36.871 57.074 0.50508" stroke-width="1px"/>
<path d="m313.15-210.57 64.145 5.0508" stroke-width="1px"/>
<path d="m306.58-242.39 6.566 31.82" stroke-width="1px"/>
<path d="m323.25-97.429-3.5355-52.023-6.566-61.114" stroke-width="1px"/>
<path d="m321.23-150.46 62.124-12.122" stroke-width="1px"/>
<path d="m321.23-150.46-115.66 61.114" stroke-width="1px"/>
<path d="m236.38-164.1-30.81 74.751" stroke-width="1px"/>
<path d="m313.15-210.57-76.772 46.467 84.853 13.637" stroke-width="1px"/>
<path d="m173.24-219.15 139.91 8.5863" stroke-width="1px"/>
<path d="m0-274.5 64.65 122.52" stroke-width="1px"/>
<path d="m64.65-151.98-64.145-46.467 26.264 66.165 37.881-19.698" stroke-width="1px"/>
<path d="m121.72-189.86-37.881 48.992-19.193-11.112-15.657 57.579 35.355-47.477 26.769 13.637 76.772-18.688" stroke-width="1px"/>
<path d="m48.992-94.399 62.124-33.84-18.183 62.629 112.63-23.739-94.449-38.891" stroke-width="1px"/>
<path d="m27.779-26.719 21.213-67.68-46.972-19.698 24.749-18.183" stroke-width="1px"/>
<path d="m2.0203-114.1 25.759 87.378-11.617 58.084z" stroke-width="1px"/>
<path d="m16.162 31.365-18.688-18.183" stroke-width="1px"/>
<path d="m27.779-26.719 65.155-38.891-43.942-28.789" stroke-width="1px"/>
<path d="m92.934-65.61 65.155 51.013 12.122-25.759" stroke-width="1px"/>
<path d="m92.934-65.61 10.607 91.419 54.548-40.406" stroke-width="1px"/>
<path d="m92.934-65.61-15.657 106.57" stroke-width="1px"/>
<path d="m27.779-26.719l49.497 67.68 127.28 45.962" stroke-width="1px"/>
<path d="m16.162 31.365 61.114 9.5964" stroke-width="1px"/>
<path d="m37.376 63.69 39.901-22.728" stroke-width="1px"/>
<path d="m48.487 108.64 28.789-67.68-0.50508 73.236" stroke-width="1px"/>
<path d="m27.779 154.6 20.708-45.962" stroke-width="1px"/>
<path d="m27.779 154.6 48.992-40.406" stroke-width="1px"/>
<path d="m27.779 154.6-26.264-66.165 35.86-24.749-21.213-32.325" stroke-width="1px"/>
<path d="m377.29-205.52 6.0609 42.931" stroke-width="1px"/>
<path d="m427.29-257.54 28.789 39.396" stroke-width="1px"/>
<path d="m27.779 154.6 31.82 76.772 13.637-64.65 30.81-13.637" stroke-width="1px"/>
<path d="m-1.5152 188.44 61.114 42.931 58.084-45.962-1.5152 86.368-56.569-40.406v73.741l53.538-34.345-33.84 48.992-23.234-15.152-63.135-46.467 28.789 69.701 36.871-21.213-15.152 59.599 35.355-48.487 27.779 12.627-63.135 34.85 43.437 25.759 18.688-57.579 77.782-20.203-65.66-44.952 112.13 26.769 82.327 12.122 6.0609 56.063" stroke-width="1px"/>
<path d="m-1.5152 188.44 60.104 118.19" stroke-width=".87221px"/>
<path d="m117.68 185.41 53.389 55.087 25.357-51.429 57.5 30.357-81.786 20.357s139.29 9.2857 137.86 9.2857-80.19 45.943-80.19 45.943l-61.595-54.872-52.047 31.638" stroke-width="1px"/>
<path d="m-5 341.93 48.437 24.302" stroke-width="1px"/>
<path d="m21.718 327.84-26.718 14.084" stroke-width="1px"/>
<path d="m43.437 365.22-19.151 67.422-15.714 58.571-22.5-27.143" stroke-width="1px"/>
<path d="m8.5714 491.21-13.571-149.29" stroke-width="1px"/>
<path d="m-5 341.93 31.071 92.143 43.929 66.071" stroke-width="1px"/>
<path d="m26.071 434.07 60.802-43.092-16.873 109.16l27.143-17.5-10.27-91.664 66.698 53.092-55.714 37.857" stroke-width="1px"/>
<path d="m153.57 444.07 15.357-28.571-2.8571 1.7857" stroke-width="1px"/>
<path d="m86.873 390.98 112.06-21.194 12.143 50" stroke-width="1px"/>
<path d="m183.34 313.2 15.586 56.588-93.368-36.385" stroke-width="1px"/>
<path d="m198.93 369.79 113.21-62.649" stroke-width="1px"/>
<path d="m229.81 295.01-30.881 74.771" stroke-width="1px"/>
<path d="m8.5714 491.21 20 30.714 41.429-21.786z" stroke-width="1px"/>
<path d="m28.571 521.93-53.929 32.5" stroke-width="1px"/>
<path d="m44.643 566.93-66.429-31.786" stroke-width="1px"/>
<path d="m70 500.14-25.357 66.786" stroke-width="1px"/>
<path d="m70 500.14 130.36 45.714" stroke-width="1px"/>
<path d="m70 500.14 3.9286 74.643c-1.4286-0.35714-29.286-7.8571-29.286-7.8571" stroke-width="1px"/>
<path d="m44.643 566.93-22.857 48.214" stroke-width="1px"/>
<path d="m21.786 615.14 52.143-40.357" stroke-width="1px"/>
<path d="m21.786 615.14-31.429-85.357" stroke-width="1px"/>
<path d="m21.786 615.14 33.571 75.714" stroke-width="1px"/>
<path d="m55.357 690.86 12.5-64.643 31.429-15h0.35714l0.35714 0.35715" stroke-width="1px"/>
<path d="m55.357 690.86-27.857 36.429c-0.35714-2.8571-38.571-81.071-38.571-81.071" stroke-width="1px"/>
<path d="m55.357 690.86-66.429-44.643" stroke-width="1px"/>
<path d="m103.54 25.809-26.264 15.152" stroke-width="1px"/>
<path d="m1.5152 88.439 46.972 20.203 28.284 5.5558" stroke-width="1px"/>
<path d="m100.39 770.66-33.203-12.891-11.83-66.908-31.138 79.018-32.031 74.219 51.953-24.609 29.297-11.328-48.047-39.062 19.141 49.609 26.953 65.234 0.39062-76.172" opacity="1" stroke-width="1px"/>
<path d="m201.17 837.06-129.69 46.875-39.062-23.438-24.609 32.812 63.672-9.375" opacity="1" stroke-width="1px"/>
<path d="m32.422 860.5-40.234-16.406" opacity="1" stroke-width="1px"/>
<path d="m71.484 883.94 25 15.234 55.859 40.625 14.844 26.562" opacity="1" stroke-width="1px"/>
<path d="m87.109 990.97 9.375-91.797" opacity="1" stroke-width="1px"/>
<path d="m71.484 883.94 15.625 107.03" opacity="1" stroke-width="1px"/>
<path d="m152.34 939.8-65.234 51.172" opacity="1" stroke-width="1px"/>
<path d="m87.109 990.97-62.891-39.844 47.266-67.188" opacity="1" stroke-width="1px"/>
<path d="m7.8125 893.31 16.406 57.812" opacity="1" stroke-width="1px"/>
<path d="m7.8125 893.31-11.328 145.31" opacity="1" stroke-width="1px"/>
<path d="m24.219 951.12-27.734 87.5" opacity="1" stroke-width="1px"/>
<path d="m-3.5156 1038.6 46.094-19.922-18.359-67.578" opacity="1" stroke-width="1px"/>
<path d="m7.8125 893.31-12.109 17.188" opacity="1" stroke-width="1px"/>
<path d="m42.578 1018.7 44.531-27.734 20.312 63.672" opacity="1" stroke-width="1px"/>
<path d="m203.12 1011.7-95.703 42.969" opacity="1" stroke-width="1px"/>
<path d="m203.12 1011.7 6.6406-47.266" opacity="1" stroke-width="1px"/>
<path d="m87.109 990.97 116.02 20.703" opacity="1" stroke-width="1px"/>
<path d="m317.97 1020.7-3.9062 55.078-110.94-64.062 28.906 77.734 79.297-14.453" opacity="1" stroke-width="1px"/>
<path d="m203.12 1011.7-18.75 62.891-76.953-19.922-64.844-35.938 37.5 46.875 27.344-10.938" opacity="1" stroke-width="1px"/>
<path d="m42.578 1018.7 14.844 60.156-37.109-22.266-23.828-17.969" opacity="1" stroke-width="1px"/>
<path d="m20.312 1056.6-26.562 69.141 63.672-46.875" opacity="1" stroke-width="1px"/>
<path d="m80.078 1065.6-22.656 13.281" opacity="1" stroke-width="1px"/>
<path d="m184.37 1074.6-67.187 39.453-37.109-48.438" opacity="1" stroke-width="1px"/>
<path d="m117.19 1114-59.766-35.156" opacity="1" stroke-width="1px"/>
<path d="m58.984 1151.5-1.5625-72.656-67.188 122.27 67.969-48.047" opacity="1" stroke-width="1px"/>
<path d="m58.203 1153.1l58.984-39.062 114.84-24.609" opacity="1" stroke-width="1px"/>
<path d="m308.59 1135.1-76.563-45.703-63.281 55.078 85.547 19.922-57.422 32.422-25.781-53.516-53.906-29.297" opacity="1" stroke-width="1px"/>
<path d="m115.62 1198 1.5625-83.984" opacity="1" stroke-width="1px"/>
<path d="m115.62 1198-57.422-44.922" opacity="1" stroke-width="1px"/>
<path d="m115.62 1198 55.469-54.688" opacity="1" stroke-width="1px"/>
<path d="m104.69 1231.2-32.422-15.234-13.281-64.453" opacity="1" stroke-width="1px"/>
<path d="m28.906 1227.7 29.297-74.609" opacity="1" stroke-width="1px"/>
<path d="m78.125 1266.8-49.219-39.062 18.359 50.781 30.078-9.375" opacity="1" stroke-width="1px"/>
<path d="m28.906 1227.7-30.078 73.438" opacity="1" stroke-width="1px"/>
<path d="m47.266 1278.5-48.438 22.656" opacity="1" stroke-width="1px"/>
<path d="m47.266 1278.5 28.516 65.625 1.5625-75" opacity="1" stroke-width="1px"/>
<path d="m206.64 1296-130.86 48.047-76.953-42.969" opacity="1" stroke-width="1px"/>
<path d="m35.156 1319.5-21.094 32.422" opacity="1" stroke-width="1px"/>
<path d="m-6.6406 1381.2 20.703-29.297 61.719-7.8125" opacity="1" stroke-width="1px"/>
<path d="m75.781 1344.1 26.562 14.844 55.859 40.625 15.625 26.953" opacity="1" stroke-width="1px"/>
<path d="m158.2 1399.6-65.234 50.781 9.375-91.406" opacity="1" stroke-width="1px"/>
<path d="m75.781 1344.1 17.188 106.25" opacity="1" stroke-width="1px"/>
<path d="m28.516 1409.3 47.266-65.234" opacity="1" stroke-width="1px"/>
<path d="m14.062 1351.9 14.453 57.422" opacity="1" stroke-width="1px"/>
<path d="m28.516 1409.3 64.453 41.016" opacity="1" stroke-width="1px"/>
<path d="m14.062 1351.9-11.719 120.31" opacity="1" stroke-width="1px"/>
<path d="m33.594 1496.8-31.25-24.609" opacity="1" stroke-width="1px"/>
<path d="m28.516 1409.3 5.0781 87.5" opacity="1" stroke-width="1px"/>
<path d="m33.594 1496.8 59.375-46.484 51.562 52.734 26.953-51.172 58.594 30.469-86.328 21.484" opacity="1" stroke-width="1px"/>
<path d="m90.625 1532.4 2.3438-82.031" opacity="1" stroke-width="1px"/>
<path d="m143.75 1503.9 136.72 6.25-72.266 47.656-63.672-54.688-53.906 29.297-57.031-35.547 1.1719 73.047-41.406-75" opacity="1" stroke-width="1px"/>
<path d="m90.625 1532.4-55.859 37.5-46.094-33.984" opacity="1" stroke-width="1px"/>
<path d="m208.2 1557.8-117.58-25.391 66.016 43.359" opacity="1" stroke-width="1px"/>
<path d="m208.2 1557.8-32.422 74.219-19.141-56.25" opacity="1" stroke-width="1px"/>
<path d="m78.125 1594.1 78.516-18.359" opacity="1" stroke-width="1px"/>
<path d="m78.125 1594.1-43.359-24.219" opacity="1" stroke-width="1px"/>
<path d="m56.25 1579.6 34.375-47.266" opacity="1" stroke-width="1px"/>
<path d="m78.125 1594.1 97.656 37.891" opacity="1" stroke-width="1px"/>
<path d="m175.78 1632 9.7656 51.172" opacity="1" stroke-width="1px"/>
<path d="m60.937 1655.8 114.84-23.828" opacity="1" stroke-width="1px"/>
<path d="m60.937 1655.8 17.188-61.719-59.766 34.375 37.891-48.828" opacity="1" stroke-width="1px"/>
<path d="m18.359 1628.5 16.406-58.594-69.141 37.891z" opacity="1" stroke-width="1px"/>
<path d="m18.359 1628.5 42.578 27.344-59.375 42.578" opacity="1" stroke-width="1px"/>
<path d="m18.359 1628.5-16.797 69.922" opacity="1" stroke-width="1px"/>
<path d="m60.937 1655.8 67.578 50.391" opacity="1" stroke-width="1px"/>
<path d="m141.8 1679.6-13.281 26.562" opacity="1" stroke-width="1px"/>
<path d="m128.52 1706.2-33.203 32.422" opacity="1" stroke-width="1px"/>
<path d="m30.469 1705 64.844 33.594" opacity="1" stroke-width="1px"/>
<path d="m67.578 1752.3-0.78125-1.9532-36.328-45.312 16.797 60.938" opacity="1" stroke-width="1px"/>
<path d="m1.5625 1698.4 45.703 67.578-51.172-32.812" opacity="1" stroke-width="1px"/>
<path d="m10.937 1743.3-12.891 32.031" opacity="1" stroke-width="1px"/>
<path d="m-3.125 1800.7 50.391-34.766 20.312-13.672" opacity="1" stroke-width="1px"/>
<path d="m67.578 1752.3 27.734-13.672 92.187-37.891" opacity="1" stroke-width="1px"/>
<path d="m308.2 1708.9-3.9062 52.734-116.8-60.938 31.25 75.391 85.547-14.844" opacity="1" stroke-width="1px"/>
<path d="m187.5 1700.7-14.453 57.812-77.734-19.922" opacity="1" stroke-width="1px"/>
<path d="m67.578 1752.3 36.328 48.438 69.141-42.188" opacity="1" stroke-width="1px"/>
<path d="m103.91 1800.7-56.641-34.766 0.39062 73.047-66.797 47.266 66.406-120.31" opacity="1" stroke-width="1px"/>
<path d="m103.91 1800.7 114.84-24.609 80.859 44.922 4.6875-59.375" opacity="1" stroke-width="1px"/>
<path d="m218.75 1776.1-60.547 55.859-54.297-31.25 4.2969 83.594-60.547-45.312 56.25-38.281" opacity="1" stroke-width="1px"/>
<path d="m47.656 1839-11.719 53.906" opacity="1" stroke-width="1px"/>
<path d="m158.2 1832-50 52.344" opacity="1" stroke-width="1px"/>
<path d="m158.2 1832 141.41-10.938" opacity="1" stroke-width="1px"/>
<path d="m158.2 1832 84.375 19.531 57.031-30.469-8.9844 33.984-11.719 41.016" opacity="1" stroke-width="1px"/>
<path d="m185.94 1881.2-27.734-49.219" opacity="1" stroke-width="1px"/>
<path d="m185.94 1881.2 56.641-29.688" opacity="1" stroke-width="1px"/>
<path d="m185.94 1881.2 105.86-27.734" opacity="1" stroke-width="1px"/>
<path d="m299.61 1821 68.359-45.312" opacity="1" stroke-width="1px"/>
<path d="m367.97 1775.7-63.672-14.062" opacity="1" stroke-width="1px"/>
<path d="m367.97 1775.7 35.156-41.797" opacity="1" stroke-width="1px"/>
<path d="m367.97 1775.7 110.16-53.906" opacity="1" stroke-width="1px"/>
<path d="m478.12 1721.8 32.422 55.469 21.484 46.484 32.969 61.719-122.03-54.688 62.109 51.562-96.094-14.844 33.594-35.547-150.78 21.484 65.625 28.906" opacity="1" stroke-width="1px"/>
<path d="m367.97 1775.7 53.125 39.062 21.875 16.016 67.578-53.516z" opacity="1" stroke-width="1px"/>
<path d="m360.94 1817.5 7.0312-41.797" opacity="1" stroke-width="1px"/>
<path d="m299.61 1821 61.328-3.5157 58.203-4.2968" opacity="1" stroke-width="1px"/>
<path d="m360.94 1817.5-69.141 35.938 117.19 14.062" opacity="1" stroke-width="1px"/>
<path d="m442.58 1832 89.453-8.9844" opacity="1" stroke-width="1px"/>
</g>
<g fill="#ccc">
<path d="m33.036 725.14a5.5357 5.5357 0 0 1 -5.5357 5.5357 5.5357 5.5357 0 0 1 -5.5357 -5.5357 5.5357 5.5357 0 0 1 5.5357 -5.5357 5.5357 5.5357 0 0 1 5.5357 5.5357z"/>
<path d="m-4.4643 648.36a5.5357 5.5357 0 0 1 -5.5357 5.5357 5.5357 5.5357 0 0 1 -5.5357 -5.5357 5.5357 5.5357 0 0 1 5.5357 -5.5357 5.5357 5.5357 0 0 1 5.5357 5.5357z"/>
<path d="m60.179 690.14a5.5357 5.5357 0 0 1 -5.5357 5.5357 5.5357 5.5357 0 0 1 -5.5357 -5.5357 5.5357 5.5357 0 0 1 5.5357 -5.5357 5.5357 5.5357 0 0 1 5.5357 5.5357z"/>
<path d="m72.679 626.21a5.5357 5.5357 0 0 1 -5.5357 5.5357 5.5357 5.5357 0 0 1 -5.5357 -5.5357 5.5357 5.5357 0 0 1 5.5357 -5.5357 5.5357 5.5357 0 0 1 5.5357 5.5357z"/>
<path d="m103.75 611.93a5.5357 5.5357 0 0 1 -5.5357 5.5357 5.5357 5.5357 0 0 1 -5.5357 -5.5357 5.5357 5.5357 0 0 1 5.5357 -5.5357 5.5357 5.5357 0 0 1 5.5357 5.5357z"/>
<path d="m28.75 613.71a5.5357 5.5357 0 0 1 -5.5357 5.5357 5.5357 5.5357 0 0 1 -5.5357 -5.5357 5.5357 5.5357 0 0 1 5.5357 -5.5357 5.5357 5.5357 0 0 1 5.5357 5.5357z"/>
<path d="m76.607 575.5a5.5357 5.5357 0 0 1 -5.5357 5.5357 5.5357 5.5357 0 0 1 -5.5357 -5.5357 5.5357 5.5357 0 0 1 5.5357 -5.5357 5.5357 5.5357 0 0 1 5.5357 5.5357z"/>
<path d="m48.75 564.79a5.5357 5.5357 0 0 1 -5.5357 5.5357 5.5357 5.5357 0 0 1 -5.5357 -5.5357 5.5357 5.5357 0 0 1 5.5357 -5.5357 5.5357 5.5357 0 0 1 5.5357 5.5357z"/>
<path d="m-0.53571 541.93a5.5357 5.5357 0 0 1 -5.5357 5.5357 5.5357 5.5357 0 0 1 -5.5357 -5.5357 5.5357 5.5357 0 0 1 5.5357 -5.5357 5.5357 5.5357 0 0 1 5.5357 5.5357z"/>
<path d="m205.54 546.57a5.5357 5.5357 0 0 1 -5.5357 5.5357 5.5357 5.5357 0 0 1 -5.5357 -5.5357 5.5357 5.5357 0 0 1 5.5357 -5.5357 5.5357 5.5357 0 0 1 5.5357 5.5357z"/>
<path d="m36.25 522.64a5.5357 5.5357 0 0 1 -5.5357 5.5357 5.5357 5.5357 0 0 1 -5.5357 -5.5357 5.5357 5.5357 0 0 1 5.5357 -5.5357 5.5357 5.5357 0 0 1 5.5357 5.5357z"/>
<path d="m13.75 490.86a5.5357 5.5357 0 0 1 -5.5357 5.5357 5.5357 5.5357 0 0 1 -5.5357 -5.5357 5.5357 5.5357 0 0 1 5.5357 -5.5357 5.5357 5.5357 0 0 1 5.5357 5.5357z"/>
<path d="m103.04 483.36a5.5357 5.5357 0 0 1 -5.5357 5.5357 5.5357 5.5357 0 0 1 -5.5357 -5.5357 5.5357 5.5357 0 0 1 5.5357 -5.5357 5.5357 5.5357 0 0 1 5.5357 5.5357z"/>
<path d="m75.536 499.79a5.5357 5.5357 0 0 1 -5.5357 5.5357 5.5357 5.5357 0 0 1 -5.5357 -5.5357 5.5357 5.5357 0 0 1 5.5357 -5.5357 5.5357 5.5357 0 0 1 5.5357 5.5357z"/>
<path d="m30.536 434.07a5.5357 5.5357 0 0 1 -5.5357 5.5357 5.5357 5.5357 0 0 1 -5.5357 -5.5357 5.5357 5.5357 0 0 1 5.5357 -5.5357 5.5357 5.5357 0 0 1 5.5357 5.5357z"/>
<path d="m158.04 443.36a5.5357 5.5357 0 0 1 -5.5357 5.5357 5.5357 5.5357 0 0 1 -5.5357 -5.5357 5.5357 5.5357 0 0 1 5.5357 -5.5357 5.5357 5.5357 0 0 1 5.5357 5.5357z"/>
<path d="m172.68 416.57a5.5357 5.5357 0 0 1 -5.5357 5.5357 5.5357 5.5357 0 0 1 -5.5357 -5.5357 5.5357 5.5357 0 0 1 5.5357 -5.5357 5.5357 5.5357 0 0 1 5.5357 5.5357z"/>
<path d="m203.75 370.14a5.5357 5.5357 0 0 1 -5.5357 5.5357 5.5357 5.5357 0 0 1 -5.5357 -5.5357 5.5357 5.5357 0 0 1 5.5357 -5.5357 5.5357 5.5357 0 0 1 5.5357 5.5357z"/>
<path d="m215.18 418a5.5357 5.5357 0 0 1 -5.5357 5.5357 5.5357 5.5357 0 0 1 -5.5357 -5.5357 5.5357 5.5357 0 0 1 5.5357 -5.5357 5.5357 5.5357 0 0 1 5.5357 5.5357z"/>
<path d="m93.036 392.64a5.5357 5.5357 0 0 1 -5.5357 5.5357 5.5357 5.5357 0 0 1 -5.5357 -5.5357 5.5357 5.5357 0 0 1 5.5357 -5.5357 5.5357 5.5357 0 0 1 5.5357 5.5357z"/>
<path d="m47.679 365.14a5.5357 5.5357 0 0 1 -5.5357 5.5357 5.5357 5.5357 0 0 1 -5.5357 -5.5357 5.5357 5.5357 0 0 1 5.5357 -5.5357 5.5357 5.5357 0 0 1 5.5357 5.5357z"/>
<path d="m324.11 361.93a5.5357 5.5357 0 0 1 -5.5357 5.5357 5.5357 5.5357 0 0 1 -5.5357 -5.5357 5.5357 5.5357 0 0 1 5.5357 -5.5357 5.5357 5.5357 0 0 1 5.5357 5.5357z"/>
<path d="m319.82 308a5.5357 5.5357 0 0 1 -5.5357 5.5357 5.5357 5.5357 0 0 1 -5.5357 -5.5357 5.5357 5.5357 0 0 1 5.5357 -5.5357 5.5357 5.5357 0 0 1 5.5357 5.5357z"/>
<path d="m236.61 294.43a5.5357 5.5357 0 0 1 -5.5357 5.5357 5.5357 5.5357 0 0 1 -5.5357 -5.5357 5.5357 5.5357 0 0 1 5.5357 -5.5357 5.5357 5.5357 0 0 1 5.5357 5.5357z"/>
<path d="m189.46 312.64a5.5357 5.5357 0 0 1 -5.5357 5.5357 5.5357 5.5357 0 0 1 -5.5357 -5.5357 5.5357 5.5357 0 0 1 5.5357 -5.5357 5.5357 5.5357 0 0 1 5.5357 5.5357z"/>
<path d="m111.96 331.21a5.5357 5.5357 0 0 1 -5.5357 5.5357 5.5357 5.5357 0 0 1 -5.5357 -5.5357 5.5357 5.5357 0 0 1 5.5357 -5.5357 5.5357 5.5357 0 0 1 5.5357 5.5357z"/>
<path d="m85.179 318a5.5357 5.5357 0 0 1 -5.5357 5.5357 5.5357 5.5357 0 0 1 -5.5357 -5.5357 5.5357 5.5357 0 0 1 5.5357 -5.5357 5.5357 5.5357 0 0 1 5.5357 5.5357z"/>
<path d="m62.321 305.5a5.5357 5.5357 0 0 1 -5.5357 5.5357 5.5357 5.5357 0 0 1 -5.5357 -5.5357 5.5357 5.5357 0 0 1 5.5357 -5.5357 5.5357 5.5357 0 0 1 5.5357 5.5357z"/>
<path d="m-1.25 259.43a5.5357 5.5357 0 0 1 -5.5357 5.5357 5.5357 5.5357 0 0 1 -5.5357 -5.5357 5.5357 5.5357 0 0 1 5.5357 -5.5357 5.5357 5.5357 0 0 1 5.5357 5.5357z"/>
<path d="m26.607 328a5.5357 5.5357 0 0 1 -5.5357 5.5357 5.5357 5.5357 0 0 1 -5.5357 -5.5357 5.5357 5.5357 0 0 1 5.5357 -5.5357 5.5357 5.5357 0 0 1 5.5357 5.5357z"/>
<path d="m313.75 248a5.5357 5.5357 0 0 1 -5.5357 5.5357 5.5357 5.5357 0 0 1 -5.5357 -5.5357 5.5357 5.5357 0 0 1 5.5357 -5.5357 5.5357 5.5357 0 0 1 5.5357 5.5357z"/>
<path d="m258.04 218.36a5.5357 5.5357 0 0 1 -5.5357 5.5357 5.5357 5.5357 0 0 1 -5.5357 -5.5357 5.5357 5.5357 0 0 1 5.5357 -5.5357 5.5357 5.5357 0 0 1 5.5357 5.5357z"/>
<path d="m202.68 190.14a5.5357 5.5357 0 0 1 -5.5357 5.5357 5.5357 5.5357 0 0 1 -5.5357 -5.5357 5.5357 5.5357 0 0 1 5.5357 -5.5357 5.5357 5.5357 0 0 1 5.5357 5.5357z"/>
<path d="m175.18 240.14a5.5357 5.5357 0 0 1 -5.5357 5.5357 5.5357 5.5357 0 0 1 -5.5357 -5.5357 5.5357 5.5357 0 0 1 5.5357 -5.5357 5.5357 5.5357 0 0 1 5.5357 5.5357z"/>
<path d="m122.32 269.43a5.5357 5.5357 0 0 1 -5.5357 5.5357 5.5357 5.5357 0 0 1 -5.5357 -5.5357 5.5357 5.5357 0 0 1 5.5357 -5.5357 5.5357 5.5357 0 0 1 5.5357 5.5357z"/>
<path d="m64.821 231.93a5.5357 5.5357 0 0 1 -5.5357 5.5357 5.5357 5.5357 0 0 1 -5.5357 -5.5357 5.5357 5.5357 0 0 1 5.5357 -5.5357 5.5357 5.5357 0 0 1 5.5357 5.5357z"/>
<path d="m123.39 186.93a5.5357 5.5357 0 0 1 -5.5357 5.5357 5.5357 5.5357 0 0 1 -5.5357 -5.5357 5.5357 5.5357 0 0 1 5.5357 -5.5357 5.5357 5.5357 0 0 1 5.5357 5.5357z"/>
<path d="m109.11 153.36a5.5357 5.5357 0 0 1 -5.5357 5.5357 5.5357 5.5357 0 0 1 -5.5357 -5.5357 5.5357 5.5357 0 0 1 5.5357 -5.5357 5.5357 5.5357 0 0 1 5.5357 5.5357z"/>
<path d="m76.964 166.93a5.5357 5.5357 0 0 1 -5.5357 5.5357 5.5357 5.5357 0 0 1 -5.5357 -5.5357 5.5357 5.5357 0 0 1 5.5357 -5.5357 5.5357 5.5357 0 0 1 5.5357 5.5357z"/>
<path d="m32.321 155.5a5.5357 5.5357 0 0 1 -5.5357 5.5357 5.5357 5.5357 0 0 1 -5.5357 -5.5357 5.5357 5.5357 0 0 1 5.5357 -5.5357 5.5357 5.5357 0 0 1 5.5357 5.5357z"/>
<path d="m82.321 116.21a5.5357 5.5357 0 0 1 -5.5357 5.5357 5.5357 5.5357 0 0 1 -5.5357 -5.5357 5.5357 5.5357 0 0 1 5.5357 -5.5357 5.5357 5.5357 0 0 1 5.5357 5.5357z"/>
<path d="m54.821 105.86a5.5357 5.5357 0 0 1 -5.5357 5.5357 5.5357 5.5357 0 0 1 -5.5357 -5.5357 5.5357 5.5357 0 0 1 5.5357 -5.5357 5.5357 5.5357 0 0 1 5.5357 5.5357z"/>
<path d="m8.75 85.857a5.5357 5.5357 0 0 1 -5.5357 5.5357 5.5357 5.5357 0 0 1 -5.5357 -5.5357 5.5357 5.5357 0 0 1 5.5357 -5.5357 5.5357 5.5357 0 0 1 5.5357 5.5357z"/>
<path d="m211.25 88.357a5.5357 5.5357 0 0 1 -5.5357 5.5357 5.5357 5.5357 0 0 1 -5.5357 -5.5357 5.5357 5.5357 0 0 1 5.5357 -5.5357 5.5357 5.5357 0 0 1 5.5357 5.5357z"/>
<path d="m41.607 64.071a5.5357 5.5357 0 0 1 -5.5357 5.5357 5.5357 5.5357 0 0 1 -5.5357 -5.5357 5.5357 5.5357 0 0 1 5.5357 -5.5357 5.5357 5.5357 0 0 1 5.5357 5.5357z"/>
<path d="m82.321 41.125a5.5357 5.5357 0 0 1 -5.5357 5.5357 5.5357 5.5357 0 0 1 -5.5357 -5.5357 5.5357 5.5357 0 0 1 5.5357 -5.5357 5.5357 5.5357 0 0 1 5.5357 5.5357z"/>
<path d="m18.75 31.929a5.5357 5.5357 0 0 1 -5.5357 5.5357 5.5357 5.5357 0 0 1 -5.5357 -5.5357 5.5357 5.5357 0 0 1 5.5357 -5.5357 5.5357 5.5357 0 0 1 5.5357 5.5357z"/>
<path d="m108.75 24.429a5.5357 5.5357 0 0 1 -5.5357 5.5357 5.5357 5.5357 0 0 1 -5.5357 -5.5357 5.5357 5.5357 0 0 1 5.5357 -5.5357 5.5357 5.5357 0 0 1 5.5357 5.5357z"/>
<path d="m34.107-25.214a5.5357 5.5357 0 0 1 -5.5357 5.5357 5.5357 5.5357 0 0 1 -5.5357 -5.5357 5.5357 5.5357 0 0 1 5.5357 -5.5357 5.5357 5.5357 0 0 1 5.5357 5.5357z"/>
<path d="m163.75-15.929a5.5357 5.5357 0 0 1 -5.5357 5.5357 5.5357 5.5357 0 0 1 -5.5357 -5.5357 5.5357 5.5357 0 0 1 5.5357 -5.5357 5.5357 5.5357 0 0 1 5.5357 5.5357z"/>
<path d="m177.68-42a5.5357 5.5357 0 0 1 -5.5357 5.5357 5.5357 5.5357 0 0 1 -5.5357 -5.5357 5.5357 5.5357 0 0 1 5.5357 -5.5357 5.5357 5.5357 0 0 1 5.5357 5.5357z"/>
<path d="m220.89-39.857a5.5357 5.5357 0 0 1 -5.5357 5.5357 5.5357 5.5357 0 0 1 -5.5357 -5.5357 5.5357 5.5357 0 0 1 5.5357 -5.5357 5.5357 5.5357 0 0 1 5.5357 5.5357z"/>
<path d="m96.964-66.286a5.5357 5.5357 0 0 1 -5.5357 5.5357 5.5357 5.5357 0 0 1 -5.5357 -5.5357 5.5357 5.5357 0 0 1 5.5357 -5.5357 5.5357 5.5357 0 0 1 5.5357 5.5357z"/>
<path d="m6.9643-115.93a5.5357 5.5357 0 0 1 -5.5357 5.5357 5.5357 5.5357 0 0 1 -5.5357 -5.5357 5.5357 5.5357 0 0 1 5.5357 -5.5357 5.5357 5.5357 0 0 1 5.5357 5.5357z"/>
<path d="m53.393-93.786a5.5357 5.5357 0 0 1 -5.5357 5.5357 5.5357 5.5357 0 0 1 -5.5357 -5.5357 5.5357 5.5357 0 0 1 5.5357 -5.5357 5.5357 5.5357 0 0 1 5.5357 5.5357z"/>
<path d="m8.0357-197a5.5357 5.5357 0 0 1 -5.5357 5.5357 5.5357 5.5357 0 0 1 -5.5357 -5.5357 5.5357 5.5357 0 0 1 5.5357 -5.5357 5.5357 5.5357 0 0 1 5.5357 5.5357z"/>
<path d="m32.321-132a5.5357 5.5357 0 0 1 -5.5357 5.5357 5.5357 5.5357 0 0 1 -5.5357 -5.5357 5.5357 5.5357 0 0 1 5.5357 -5.5357 5.5357 5.5357 0 0 1 5.5357 5.5357z"/>
<path d="m68.393-152.36a5.5357 5.5357 0 0 1 -5.5357 5.5357 5.5357 5.5357 0 0 1 -5.5357 -5.5357 5.5357 5.5357 0 0 1 5.5357 -5.5357 5.5357 5.5357 0 0 1 5.5357 5.5357z"/>
<path d="m91.25-141.64a5.5357 5.5357 0 0 1 -5.5357 5.5357 5.5357 5.5357 0 0 1 -5.5357 -5.5357 5.5357 5.5357 0 0 1 5.5357 -5.5357 5.5357 5.5357 0 0 1 5.5357 5.5357z"/>
<path d="m116.96-127.71a5.5357 5.5357 0 0 1 -5.5357 5.5357 5.5357 5.5357 0 0 1 -5.5357 -5.5357 5.5357 5.5357 0 0 1 5.5357 -5.5357 5.5357 5.5357 0 0 1 5.5357 5.5357z"/>
<path d="m210.89-89.857a5.5357 5.5357 0 0 1 -5.5357 5.5357 5.5357 5.5357 0 0 1 -5.5357 -5.5357 5.5357 5.5357 0 0 1 5.5357 -5.5357 5.5357 5.5357 0 0 1 5.5357 5.5357z"/>
<path d="m193.75-145.93a5.5357 5.5357 0 0 1 -5.5357 5.5357 5.5357 5.5357 0 0 1 -5.5357 -5.5357 5.5357 5.5357 0 0 1 5.5357 -5.5357 5.5357 5.5357 0 0 1 5.5357 5.5357z"/>
<path d="m242.32-164.5a5.5357 5.5357 0 0 1 -5.5357 5.5357 5.5357 5.5357 0 0 1 -5.5357 -5.5357 5.5357 5.5357 0 0 1 5.5357 -5.5357 5.5357 5.5357 0 0 1 5.5357 5.5357z"/>
<path d="m328.75-96.286a5.5357 5.5357 0 0 1 -5.5357 5.5357 5.5357 5.5357 0 0 1 -5.5357 -5.5357 5.5357 5.5357 0 0 1 5.5357 -5.5357 5.5357 5.5357 0 0 1 5.5357 5.5357z"/>
<path d="m324.82-150.57a5.5357 5.5357 0 0 1 -5.5357 5.5357 5.5357 5.5357 0 0 1 -5.5357 -5.5357 5.5357 5.5357 0 0 1 5.5357 -5.5357 5.5357 5.5357 0 0 1 5.5357 5.5357z"/>
<path d="m319.46-209.86a5.5357 5.5357 0 0 1 -5.5357 5.5357 5.5357 5.5357 0 0 1 -5.5357 -5.5357 5.5357 5.5357 0 0 1 5.5357 -5.5357 5.5357 5.5357 0 0 1 5.5357 5.5357z"/>
<path d="m423.39-125.21a5.5357 5.5357 0 0 1 -5.5357 5.5357 5.5357 5.5357 0 0 1 -5.5357 -5.5357 5.5357 5.5357 0 0 1 5.5357 -5.5357 5.5357 5.5357 0 0 1 5.5357 5.5357z"/>
<path d="m390.89-162.36a5.5357 5.5357 0 0 1 -5.5357 5.5357 5.5357 5.5357 0 0 1 -5.5357 -5.5357 5.5357 5.5357 0 0 1 5.5357 -5.5357 5.5357 5.5357 0 0 1 5.5357 5.5357z"/>
<path d="m383.39-204.86a5.5357 5.5357 0 0 1 -5.5357 5.5357 5.5357 5.5357 0 0 1 -5.5357 -5.5357 5.5357 5.5357 0 0 1 5.5357 -5.5357 5.5357 5.5357 0 0 1 5.5357 5.5357z"/>
<path d="m500.89-112a5.5357 5.5357 0 0 1 -5.5357 5.5357 5.5357 5.5357 0 0 1 -5.5357 -5.5357 5.5357 5.5357 0 0 1 5.5357 -5.5357 5.5357 5.5357 0 0 1 5.5357 5.5357z"/>
<path d="m440.54-202.36a5.5357 5.5357 0 0 1 -5.5357 5.5357 5.5357 5.5357 0 0 1 -5.5357 -5.5357 5.5357 5.5357 0 0 1 5.5357 -5.5357 5.5357 5.5357 0 0 1 5.5357 5.5357z"/>
<path d="m531.96-166.29a5.5357 5.5357 0 0 1 -5.5357 5.5357 5.5357 5.5357 0 0 1 -5.5357 -5.5357 5.5357 5.5357 0 0 1 5.5357 -5.5357 5.5357 5.5357 0 0 1 5.5357 5.5357z"/>
<path d="m462.68-219.5a5.5357 5.5357 0 0 1 -5.5357 5.5357 5.5357 5.5357 0 0 1 -5.5357 -5.5357 5.5357 5.5357 0 0 1 5.5357 -5.5357 5.5357 5.5357 0 0 1 5.5357 5.5357z"/>
<path d="m553.39-211.64a5.5357 5.5357 0 0 1 -5.5357 5.5357 5.5357 5.5357 0 0 1 -5.5357 -5.5357 5.5357 5.5357 0 0 1 5.5357 -5.5357 5.5357 5.5357 0 0 1 5.5357 5.5357z"/>
<path d="m584.82-272.71a5.5357 5.5357 0 0 1 -5.5357 5.5357 5.5357 5.5357 0 0 1 -5.5357 -5.5357 5.5357 5.5357 0 0 1 5.5357 -5.5357 5.5357 5.5357 0 0 1 5.5357 5.5357z"/>
<path d="m525.18-270.21a5.5357 5.5357 0 0 1 -5.5357 5.5357 5.5357 5.5357 0 0 1 -5.5357 -5.5357 5.5357 5.5357 0 0 1 5.5357 -5.5357 5.5357 5.5357 0 0 1 5.5357 5.5357z"/>
<path d="m431.61-257.71a5.5357 5.5357 0 0 1 -5.5357 5.5357 5.5357 5.5357 0 0 1 -5.5357 -5.5357 5.5357 5.5357 0 0 1 5.5357 -5.5357 5.5357 5.5357 0 0 1 5.5357 5.5357z"/>
<path d="m378.75-270.57a5.5357 5.5357 0 0 1 -5.5357 5.5357 5.5357 5.5357 0 0 1 -5.5357 -5.5357 5.5357 5.5357 0 0 1 5.5357 -5.5357 5.5357 5.5357 0 0 1 5.5357 5.5357z"/>
<path d="m312.68-241.64a5.5357 5.5357 0 0 1 -5.5357 5.5357 5.5357 5.5357 0 0 1 -5.5357 -5.5357 5.5357 5.5357 0 0 1 5.5357 -5.5357 5.5357 5.5357 0 0 1 5.5357 5.5357z"/>
<path d="m263.04-240.21a5.5357 5.5357 0 0 1 -5.5357 5.5357 5.5357 5.5357 0 0 1 -5.5357 -5.5357 5.5357 5.5357 0 0 1 5.5357 -5.5357 5.5357 5.5357 0 0 1 5.5357 5.5357z"/>
<path d="m208.04-269.5a5.5357 5.5357 0 0 1 -5.5357 5.5357 5.5357 5.5357 0 0 1 -5.5357 -5.5357 5.5357 5.5357 0 0 1 5.5357 -5.5357 5.5357 5.5357 0 0 1 5.5357 5.5357z"/>
<path d="m180.89-219.5a5.5357 5.5357 0 0 1 -5.5357 5.5357 5.5357 5.5357 0 0 1 -5.5357 -5.5357 5.5357 5.5357 0 0 1 5.5357 -5.5357 5.5357 5.5357 0 0 1 5.5357 5.5357z"/>
<path d="m126.96-189.86a5.5357 5.5357 0 0 1 -5.5357 5.5357 5.5357 5.5357 0 0 1 -5.5357 -5.5357 5.5357 5.5357 0 0 1 5.5357 -5.5357 5.5357 5.5357 0 0 1 5.5357 5.5357z"/>
<path d="m128.04-272a5.5357 5.5357 0 0 1 -5.5357 5.5357 5.5357 5.5357 0 0 1 -5.5357 -5.5357 5.5357 5.5357 0 0 1 5.5357 -5.5357 5.5357 5.5357 0 0 1 5.5357 5.5357z"/>
<path d="m69.107-227a5.5357 5.5357 0 0 1 -5.5357 5.5357 5.5357 5.5357 0 0 1 -5.5357 -5.5357 5.5357 5.5357 0 0 1 5.5357 -5.5357 5.5357 5.5357 0 0 1 5.5357 5.5357z"/>
<path d="m6.6071 190.5a5.5357 5.5357 0 0 1 -5.5357 5.5357 5.5357 5.5357 0 0 1 -5.5357 -5.5357 5.5357 5.5357 0 0 1 5.5357 -5.5357 5.5357 5.5357 0 0 1 5.5357 5.5357z"/>
<path d="m8.5714-270.39a5.5357 5.5357 0 0 1 -5.5357 5.5357 5.5357 5.5357 0 0 1 -5.5357 -5.5357 5.5357 5.5357 0 0 1 5.5357 -5.5357 5.5357 5.5357 0 0 1 5.5357 5.5357z"/>
<path d="m60.179 690.14a5.5357 5.5357 0 0 1 -5.5357 5.5357 5.5357 5.5357 0 0 1 -5.5357 -5.5357 5.5357 5.5357 0 0 1 5.5357 -5.5357 5.5357 5.5357 0 0 1 5.5357 5.5357z" opacity="1"/>
<path d="m72.723 756.59a5.5357 5.5357 0 0 1 -5.5357 5.5357 5.5357 5.5357 0 0 1 -5.5357 -5.5357 5.5357 5.5357 0 0 1 5.5357 -5.5357 5.5357 5.5357 0 0 1 5.5357 5.5357z" opacity="1"/>
<path d="m104.75 771.44a5.5357 5.5357 0 0 1 -5.5358 5.5357 5.5357 5.5357 0 0 1 -5.5357 -5.5357 5.5357 5.5357 0 0 1 5.5357 -5.5357 5.5357 5.5357 0 0 1 5.5358 5.5357z" opacity="1"/>
<path d="m29.688 768.9a5.5357 5.5357 0 0 1 -5.5357 5.5357 5.5357 5.5357 0 0 1 -5.5357 -5.5357 5.5357 5.5357 0 0 1 5.5357 -5.5357 5.5357 5.5357 0 0 1 5.5357 5.5357z" opacity="1"/>
<path d="m77.997 808.35a5.5357 5.5357 0 0 1 -5.5357 5.5357 5.5357 5.5357 0 0 1 -5.5357 -5.5357 5.5357 5.5357 0 0 1 5.5357 -5.5357 5.5357 5.5357 0 0 1 5.5357 5.5357z" opacity="1"/>
<path d="m49.676 818.51a5.5357 5.5357 0 0 1 -5.5357 5.5357 5.5357 5.5357 0 0 1 -5.5357 -5.5357 5.5357 5.5357 0 0 1 5.5357 -5.5357 5.5357 5.5357 0 0 1 5.5357 5.5357z" opacity="1"/>
<path d="m-1.4955 843.12a5.5357 5.5357 0 0 1 -5.5357 5.5357 5.5357 5.5357 0 0 1 -5.5357 -5.5357 5.5357 5.5357 0 0 1 5.5357 -5.5357 5.5357 5.5357 0 0 1 5.5357 5.5357z" opacity="1"/>
<path d="m36.523 861.09a5.5357 5.5357 0 0 1 -5.5357 5.5357 5.5357 5.5357 0 0 1 -5.5357 -5.5357 5.5357 5.5357 0 0 1 5.5357 -5.5357 5.5357 5.5357 0 0 1 5.5357 5.5357z" opacity="1"/>
<path d="m76.629 884.13a5.5357 5.5357 0 0 1 -5.5357 5.5357 5.5357 5.5357 0 0 1 -5.5357 -5.5357 5.5357 5.5357 0 0 1 5.5357 -5.5357 5.5357 5.5357 0 0 1 5.5357 5.5357z" opacity="1"/>
<path d="m206.93 836.09a5.5357 5.5357 0 0 1 -5.5357 5.5357 5.5357 5.5357 0 0 1 -5.5357 -5.5357 5.5357 5.5357 0 0 1 5.5357 -5.5357 5.5357 5.5357 0 0 1 5.5357 5.5357z" opacity="1"/>
<path d="m13.739 892.34a5.5357 5.5357 0 0 1 -5.5357 5.5357 5.5357 5.5357 0 0 1 -5.5357 -5.5357 5.5357 5.5357 0 0 1 5.5357 -5.5357 5.5357 5.5357 0 0 1 5.5357 5.5357z" opacity="1"/>
<path d="m102.61 899.56a5.5357 5.5357 0 0 1 -5.5357 5.5357 5.5357 5.5357 0 0 1 -5.5357 -5.5357 5.5357 5.5357 0 0 1 5.5357 -5.5357 5.5357 5.5357 0 0 1 5.5357 5.5357z" opacity="1"/>
<path d="m29.95 949.17a5.5357 5.5357 0 0 1 -5.5357 5.5357 5.5357 5.5357 0 0 1 -5.5357 -5.5357 5.5357 5.5357 0 0 1 5.5357 -5.5357 5.5357 5.5357 0 0 1 5.5357 5.5357z" opacity="1"/>
<path d="m159.25 940.58a5.5357 5.5357 0 0 1 -5.5357 5.5357 5.5357 5.5357 0 0 1 -5.5357 -5.5357 5.5357 5.5357 0 0 1 5.5357 -5.5358 5.5357 5.5357 0 0 1 5.5357 5.5358z" opacity="1"/>
<path d="m172.53 965.77a5.5357 5.5357 0 0 1 -5.5357 5.5357 5.5357 5.5357 0 0 1 -5.5357 -5.5357 5.5357 5.5357 0 0 1 5.5357 -5.5358 5.5357 5.5357 0 0 1 5.5357 5.5358z" opacity="1"/>
<path d="m215.3 964.6a5.5357 5.5357 0 0 1 -5.5357 5.5357 5.5357 5.5357 0 0 1 -5.5357 -5.5357 5.5357 5.5357 0 0 1 5.5357 -5.5357 5.5357 5.5357 0 0 1 5.5357 5.5357z" opacity="1"/>
<path d="m92.45 990.19a5.5357 5.5357 0 0 1 -5.5358 5.5357 5.5357 5.5357 0 0 1 -5.5357 -5.5357 5.5357 5.5357 0 0 1 5.5357 -5.5357 5.5357 5.5357 0 0 1 5.5358 5.5357z" opacity="1"/>
<path d="m47.528 1018.1a5.5357 5.5357 0 0 1 -5.5357 5.5357 5.5357 5.5357 0 0 1 -5.5357 -5.5357 5.5357 5.5357 0 0 1 5.5357 -5.5357 5.5357 5.5357 0 0 1 5.5357 5.5357z" opacity="1"/>
<path d="m112.18 1052.3a5.5357 5.5357 0 0 1 -5.5357 5.5357 5.5357 5.5357 0 0 1 -5.5357 -5.5357 5.5357 5.5357 0 0 1 5.5357 -5.5357 5.5357 5.5357 0 0 1 5.5357 5.5357z" opacity="1"/>
<path d="m208.2 1012.1a5.5357 5.5357 0 0 1 -5.5357 5.5357 5.5357 5.5357 0 0 1 -5.5357 -5.5357 5.5357 5.5357 0 0 1 5.5357 -5.5357 5.5357 5.5357 0 0 1 5.5357 5.5357z" opacity="1"/>
<path d="m86.004 1066a5.5357 5.5357 0 0 1 -5.5357 5.5357 5.5357 5.5357 0 0 1 -5.5357 -5.5357 5.5357 5.5357 0 0 1 5.5357 -5.5357 5.5357 5.5357 0 0 1 5.5357 5.5357z" opacity="1"/>
<path d="m188.54 1073.4a5.5357 5.5357 0 0 1 -5.5357 5.5357 5.5357 5.5357 0 0 1 -5.5357 -5.5357 5.5357 5.5357 0 0 1 5.5357 -5.5357 5.5357 5.5357 0 0 1 5.5357 5.5357z" opacity="1"/>
<path d="m61.59 1078.3a5.5357 5.5357 0 0 1 -5.5357 5.5357 5.5357 5.5357 0 0 1 -5.5357 -5.5357 5.5357 5.5357 0 0 1 5.5357 -5.5357 5.5357 5.5357 0 0 1 5.5357 5.5357z" opacity="1"/>
<path d="m27.02 1056.8a5.5357 5.5357 0 0 1 -5.5357 5.5357 5.5357 5.5357 0 0 1 -5.5357 -5.5357 5.5357 5.5357 0 0 1 5.5357 -5.5357 5.5357 5.5357 0 0 1 5.5357 5.5357z" opacity="1"/>
<path d="m123.24 1114.2a5.5357 5.5357 0 0 1 -5.5357 5.5357 5.5357 5.5357 0 0 1 -5.5357 -5.5357 5.5357 5.5357 0 0 1 5.5357 -5.5357 5.5357 5.5357 0 0 1 5.5357 5.5357z" opacity="1"/>
<path d="m237.18 1089.4a5.5357 5.5357 0 0 1 -5.5357 5.5357 5.5357 5.5357 0 0 1 -5.5357 -5.5357 5.5357 5.5357 0 0 1 5.5357 -5.5357 5.5357 5.5357 0 0 1 5.5357 5.5357z" opacity="1"/>
<path d="m319.79 1074.8a5.5357 5.5357 0 0 1 -5.5357 5.5358 5.5357 5.5357 0 0 1 -5.5357 -5.5358 5.5357 5.5357 0 0 1 5.5357 -5.5357 5.5357 5.5357 0 0 1 5.5357 5.5357z" opacity="1"/>
<path d="m323.5 1021.4a5.5357 5.5357 0 0 1 -5.5358 5.5357 5.5357 5.5357 0 0 1 -5.5357 -5.5357 5.5357 5.5357 0 0 1 5.5357 -5.5357 5.5357 5.5357 0 0 1 5.5358 5.5357z" opacity="1"/>
<path d="m176.04 1143.7a5.5357 5.5357 0 0 1 -5.5357 5.5357 5.5357 5.5357 0 0 1 -5.5357 -5.5357 5.5357 5.5357 0 0 1 5.5357 -5.5358 5.5357 5.5357 0 0 1 5.5357 5.5358z" opacity="1"/>
<path d="m313.54 1134.9a5.5357 5.5357 0 0 1 -5.5357 5.5357 5.5357 5.5357 0 0 1 -5.5357 -5.5357 5.5357 5.5357 0 0 1 5.5357 -5.5357 5.5357 5.5357 0 0 1 5.5357 5.5357z" opacity="1"/>
<path d="m258.47 1164.8a5.5357 5.5357 0 0 1 -5.5357 5.5357 5.5357 5.5357 0 0 1 -5.5357 -5.5357 5.5357 5.5357 0 0 1 5.5357 -5.5357 5.5357 5.5357 0 0 1 5.5357 5.5357z" opacity="1"/>
<path d="m203.39 1193.5a5.5357 5.5357 0 0 1 -5.5357 5.5358 5.5357 5.5357 0 0 1 -5.5358 -5.5358 5.5357 5.5357 0 0 1 5.5358 -5.5357 5.5357 5.5357 0 0 1 5.5357 5.5357z" opacity="1"/>
<path d="m123.11 1196.8a5.5357 5.5357 0 0 1 -5.5357 5.5357 5.5357 5.5357 0 0 1 -5.5357 -5.5357 5.5357 5.5357 0 0 1 5.5357 -5.5357 5.5357 5.5357 0 0 1 5.5357 5.5357z" opacity="1"/>
<path d="m77.246 1215.8a5.5357 5.5357 0 0 1 -5.5357 5.5357 5.5357 5.5357 0 0 1 -5.5357 -5.5357 5.5357 5.5357 0 0 1 5.5357 -5.5358 5.5357 5.5357 0 0 1 5.5357 5.5358z" opacity="1"/>
<path d="m109.64 1229.9a5.5357 5.5357 0 0 1 -5.5357 5.5358 5.5357 5.5357 0 0 1 -5.5358 -5.5358 5.5357 5.5357 0 0 1 5.5358 -5.5357 5.5357 5.5357 0 0 1 5.5357 5.5357z" opacity="1"/>
<path d="m34.124 1228.2a5.5357 5.5357 0 0 1 -5.5357 5.5357 5.5357 5.5357 0 0 1 -5.5357 -5.5357 5.5357 5.5357 0 0 1 5.5357 -5.5358 5.5357 5.5357 0 0 1 5.5357 5.5358z" opacity="1"/>
<path d="m-3.8555 1200.4a5.5357 5.5357 0 0 1 -5.5357 5.5358 5.5357 5.5357 0 0 1 -5.5357 -5.5358 5.5357 5.5357 0 0 1 5.5357 -5.5357 5.5357 5.5357 0 0 1 5.5357 5.5357z" opacity="1"/>
<path d="m82.876 1266.9a5.5357 5.5357 0 0 1 -5.5357 5.5358 5.5357 5.5357 0 0 1 -5.5357 -5.5358 5.5357 5.5357 0 0 1 5.5357 -5.5357 5.5357 5.5357 0 0 1 5.5357 5.5357z" opacity="1"/>
<path d="m52.906 1278.1a5.5357 5.5357 0 0 1 -5.5357 5.5357 5.5357 5.5357 0 0 1 -5.5357 -5.5357 5.5357 5.5357 0 0 1 5.5357 -5.5357 5.5357 5.5357 0 0 1 5.5357 5.5357z" opacity="1"/>
<path d="m4.9833 1300.1a5.5357 5.5357 0 0 1 -5.5357 5.5357 5.5357 5.5357 0 0 1 -5.5357 -5.5357 5.5357 5.5357 0 0 1 5.5357 -5.5357 5.5357 5.5357 0 0 1 5.5357 5.5357z" opacity="1"/>
<path d="m39.924 1321.2a5.5357 5.5357 0 0 1 -5.5357 5.5357 5.5357 5.5357 0 0 1 -5.5357 -5.5357 5.5357 5.5357 0 0 1 5.5357 -5.5357 5.5357 5.5357 0 0 1 5.5357 5.5357z" opacity="1"/>
<path d="m81.633 1342.9a5.5357 5.5357 0 0 1 -5.5357 5.5357 5.5357 5.5357 0 0 1 -5.5357 -5.5357 5.5357 5.5357 0 0 1 5.5357 -5.5357 5.5357 5.5357 0 0 1 5.5357 5.5357z" opacity="1"/>
<path d="m19.208 1351.3a5.5357 5.5357 0 0 1 -5.5357 5.5357 5.5357 5.5357 0 0 1 -5.5357 -5.5357 5.5357 5.5357 0 0 1 5.5357 -5.5357 5.5357 5.5357 0 0 1 5.5357 5.5357z" opacity="1"/>
<path d="m211.79 1295.3a5.5357 5.5357 0 0 1 -5.5357 5.5357 5.5357 5.5357 0 0 1 -5.5357 -5.5357 5.5357 5.5357 0 0 1 5.5357 -5.5357 5.5357 5.5357 0 0 1 5.5357 5.5357z" opacity="1"/>
<path d="m108.07 1358.4a5.5357 5.5357 0 0 1 -5.5357 5.5357 5.5357 5.5357 0 0 1 -5.5358 -5.5357 5.5357 5.5357 0 0 1 5.5358 -5.5357 5.5357 5.5357 0 0 1 5.5357 5.5357z" opacity="1"/>
<path d="m35.223 1408a5.5357 5.5357 0 0 1 -5.5357 5.5357 5.5357 5.5357 0 0 1 -5.5357 -5.5357 5.5357 5.5357 0 0 1 5.5357 -5.5357 5.5357 5.5357 0 0 1 5.5357 5.5357z" opacity="1"/>
<path d="m98.309 1449a5.5357 5.5357 0 0 1 -5.5357 5.5357 5.5357 5.5357 0 0 1 -5.5357 -5.5357 5.5357 5.5357 0 0 1 5.5357 -5.5357 5.5357 5.5357 0 0 1 5.5357 5.5357z" opacity="1"/>
<path d="m164.13 1399.4a5.5357 5.5357 0 0 1 -5.5357 5.5357 5.5357 5.5357 0 0 1 -5.5358 -5.5357 5.5357 5.5357 0 0 1 5.5358 -5.5357 5.5357 5.5357 0 0 1 5.5357 5.5357z" opacity="1"/>
<path d="m177.7 1424.6a5.5357 5.5357 0 0 1 -5.5357 5.5357 5.5357 5.5357 0 0 1 -5.5357 -5.5357 5.5357 5.5357 0 0 1 5.5357 -5.5357 5.5357 5.5357 0 0 1 5.5357 5.5357z" opacity="1"/>
<path d="m38.405 1495.2a5.5357 5.5357 0 0 1 -5.5357 5.5357 5.5357 5.5357 0 0 1 -5.5357 -5.5357 5.5357 5.5357 0 0 1 5.5357 -5.5358 5.5357 5.5357 0 0 1 5.5357 5.5358z" opacity="1"/>
<path d="m8.1597 1472.4a5.5357 5.5357 0 0 1 -5.5357 5.5357 5.5357 5.5357 0 0 1 -5.5357 -5.5357 5.5357 5.5357 0 0 1 5.5357 -5.5358 5.5357 5.5357 0 0 1 5.5357 5.5358z" opacity="1"/>
<path d="m177.89 1451.8a5.5357 5.5357 0 0 1 -5.5357 5.5357 5.5357 5.5357 0 0 1 -5.5357 -5.5357 5.5357 5.5357 0 0 1 5.5357 -5.5357 5.5357 5.5357 0 0 1 5.5357 5.5357z" opacity="1"/>
<path d="m233.12 1481.8a5.5357 5.5357 0 0 1 -5.5357 5.5357 5.5357 5.5357 0 0 1 -5.5358 -5.5357 5.5357 5.5357 0 0 1 5.5358 -5.5357 5.5357 5.5357 0 0 1 5.5357 5.5357z" opacity="1"/>
<path d="m150.69 1502.9a5.5357 5.5357 0 0 1 -5.5358 5.5357 5.5357 5.5357 0 0 1 -5.5357 -5.5357 5.5357 5.5357 0 0 1 5.5357 -5.5357 5.5357 5.5357 0 0 1 5.5358 5.5357z" opacity="1"/>
<path d="m286.44 1510.1a5.5357 5.5357 0 0 1 -5.5357 5.5357 5.5357 5.5357 0 0 1 -5.5357 -5.5357 5.5357 5.5357 0 0 1 5.5357 -5.5357 5.5357 5.5357 0 0 1 5.5357 5.5357z" opacity="1"/>
<path d="m97.239 1532.5a5.5357 5.5357 0 0 1 -5.5357 5.5357 5.5357 5.5357 0 0 1 -5.5357 -5.5357 5.5357 5.5357 0 0 1 5.5357 -5.5357 5.5357 5.5357 0 0 1 5.5357 5.5357z" opacity="1"/>
<path d="m213.8 1557.1a5.5357 5.5357 0 0 1 -5.5358 5.5357 5.5357 5.5357 0 0 1 -5.5357 -5.5357 5.5357 5.5357 0 0 1 5.5357 -5.5358 5.5357 5.5357 0 0 1 5.5358 5.5358z" opacity="1"/>
<path d="m163.27 1575.7a5.5357 5.5357 0 0 1 -5.5358 5.5357 5.5357 5.5357 0 0 1 -5.5357 -5.5357 5.5357 5.5357 0 0 1 5.5357 -5.5357 5.5357 5.5357 0 0 1 5.5358 5.5357z" opacity="1"/>
<path d="m40.29 1568.8a5.5357 5.5357 0 0 1 -5.5357 5.5357 5.5357 5.5357 0 0 1 -5.5357 -5.5357 5.5357 5.5357 0 0 1 5.5357 -5.5358 5.5357 5.5357 0 0 1 5.5357 5.5358z" opacity="1"/>
<path d="m61.774 1580.7a5.5357 5.5357 0 0 1 -5.5357 5.5357 5.5357 5.5357 0 0 1 -5.5357 -5.5357 5.5357 5.5357 0 0 1 5.5357 -5.5357 5.5357 5.5357 0 0 1 5.5357 5.5357z" opacity="1"/>
<path d="m83.704 1594.4a5.5357 5.5357 0 0 1 -5.5357 5.5358 5.5357 5.5357 0 0 1 -5.5357 -5.5358 5.5357 5.5357 0 0 1 5.5357 -5.5357 5.5357 5.5357 0 0 1 5.5357 5.5357z" opacity="1"/>
<path d="m181.21 1633a5.5357 5.5357 0 0 1 -5.5358 5.5357 5.5357 5.5357 0 0 1 -5.5357 -5.5357 5.5357 5.5357 0 0 1 5.5357 -5.5357 5.5357 5.5357 0 0 1 5.5358 5.5357z" opacity="1"/>
<path d="m-27.886 1607.6a5.5357 5.5357 0 0 1 -5.5357 5.5357 5.5357 5.5357 0 0 1 -5.5357 -5.5357 5.5357 5.5357 0 0 1 5.5357 -5.5357 5.5357 5.5357 0 0 1 5.5357 5.5357z" opacity="1"/>
<path d="m23.124 1628.3a5.5357 5.5357 0 0 1 -5.5357 5.5357 5.5357 5.5357 0 0 1 -5.5357 -5.5357 5.5357 5.5357 0 0 1 5.5357 -5.5357 5.5357 5.5357 0 0 1 5.5357 5.5357z" opacity="1"/>
<path d="m67.84 1655.6a5.5357 5.5357 0 0 1 -5.5357 5.5357 5.5357 5.5357 0 0 1 -5.5357 -5.5357 5.5357 5.5357 0 0 1 5.5357 -5.5357 5.5357 5.5357 0 0 1 5.5357 5.5357z" opacity="1"/>
<path d="m190.89 1681.4a5.5357 5.5357 0 0 1 -5.5357 5.5357 5.5357 5.5357 0 0 1 -5.5358 -5.5357 5.5357 5.5357 0 0 1 5.5358 -5.5357 5.5357 5.5357 0 0 1 5.5357 5.5357z" opacity="1"/>
<path d="m147.72 1680.4a5.5357 5.5357 0 0 1 -5.5357 5.5357 5.5357 5.5357 0 0 1 -5.5357 -5.5357 5.5357 5.5357 0 0 1 5.5357 -5.5357 5.5357 5.5357 0 0 1 5.5357 5.5357z" opacity="1"/>
<path d="m134.05 1706a5.5357 5.5357 0 0 1 -5.5357 5.5357 5.5357 5.5357 0 0 1 -5.5357 -5.5357 5.5357 5.5357 0 0 1 5.5357 -5.5357 5.5357 5.5357 0 0 1 5.5357 5.5357z" opacity="1"/>
<path d="m193.82 1699.8a5.5357 5.5357 0 0 1 -5.5358 5.5358 5.5357 5.5357 0 0 1 -5.5357 -5.5358 5.5357 5.5357 0 0 1 5.5357 -5.5357 5.5357 5.5357 0 0 1 5.5358 5.5357z" opacity="1"/>
<path d="m36.786 1705.4a5.5357 5.5357 0 0 1 -5.5357 5.5357 5.5357 5.5357 0 0 1 -5.5357 -5.5357 5.5357 5.5357 0 0 1 5.5357 -5.5357 5.5357 5.5357 0 0 1 5.5357 5.5357z" opacity="1"/>
<path d="m100.85 1738.8a5.5357 5.5357 0 0 1 -5.5357 5.5357 5.5357 5.5357 0 0 1 -5.5357 -5.5357 5.5357 5.5357 0 0 1 5.5357 -5.5357 5.5357 5.5357 0 0 1 5.5357 5.5357z" opacity="1"/>
<path d="m74.872 1752.9a5.5357 5.5357 0 0 1 -5.5357 5.5357 5.5357 5.5357 0 0 1 -5.5357 -5.5357 5.5357 5.5357 0 0 1 5.5357 -5.5357 5.5357 5.5357 0 0 1 5.5357 5.5357z" opacity="1"/>
<path d="m52.606 1765a5.5357 5.5357 0 0 1 -5.5357 5.5357 5.5357 5.5357 0 0 1 -5.5357 -5.5357 5.5357 5.5357 0 0 1 5.5357 -5.5358 5.5357 5.5357 0 0 1 5.5357 5.5358z" opacity="1"/>
<path d="m15.692 1742.7a5.5357 5.5357 0 0 1 -5.5357 5.5357 5.5357 5.5357 0 0 1 -5.5357 -5.5357 5.5357 5.5357 0 0 1 5.5357 -5.5357 5.5357 5.5357 0 0 1 5.5357 5.5357z" opacity="1"/>
<path d="m178.72 1756.8a5.5357 5.5357 0 0 1 -5.5357 5.5357 5.5357 5.5357 0 0 1 -5.5357 -5.5357 5.5357 5.5357 0 0 1 5.5357 -5.5358 5.5357 5.5357 0 0 1 5.5357 5.5358z" opacity="1"/>
<path d="m110.77 1800.4a5.5357 5.5357 0 0 1 -5.5357 5.5357 5.5357 5.5357 0 0 1 -5.5357 -5.5357 5.5357 5.5357 0 0 1 5.5357 -5.5357 5.5357 5.5357 0 0 1 5.5357 5.5357z" opacity="1"/>
<path d="m52.354 1838a5.5357 5.5357 0 0 1 -5.5357 5.5357 5.5357 5.5357 0 0 1 -5.5357 -5.5357 5.5357 5.5357 0 0 1 5.5357 -5.5358 5.5357 5.5357 0 0 1 5.5357 5.5358z" opacity="1"/>
<path d="m-12.418 1885.1a5.5357 5.5357 0 0 1 -5.5357 5.5357 5.5357 5.5357 0 0 1 -5.5357 -5.5357 5.5357 5.5357 0 0 1 5.5357 -5.5358 5.5357 5.5357 0 0 1 5.5357 5.5358z" opacity="1"/>
<path d="m112.71 1883.6a5.5357 5.5357 0 0 1 -5.5357 5.5357 5.5357 5.5357 0 0 1 -5.5357 -5.5357 5.5357 5.5357 0 0 1 5.5357 -5.5358 5.5357 5.5357 0 0 1 5.5357 5.5358z" opacity="1"/>
<path d="m313.99 1707.9a5.5357 5.5357 0 0 1 -5.5357 5.5357 5.5357 5.5357 0 0 1 -5.5357 -5.5357 5.5357 5.5357 0 0 1 5.5357 -5.5358 5.5357 5.5357 0 0 1 5.5357 5.5358z" opacity="1"/>
<path d="m309.05 1761.7a5.5357 5.5357 0 0 1 -5.5357 5.5357 5.5357 5.5357 0 0 1 -5.5357 -5.5357 5.5357 5.5357 0 0 1 5.5357 -5.5357 5.5357 5.5357 0 0 1 5.5357 5.5357z" opacity="1"/>
<path d="m225.65 1775.3a5.5357 5.5357 0 0 1 -5.5357 5.5357 5.5357 5.5357 0 0 1 -5.5357 -5.5357 5.5357 5.5357 0 0 1 5.5357 -5.5357 5.5357 5.5357 0 0 1 5.5357 5.5357z" opacity="1"/>
<path d="m407.29 1734.5a5.5357 5.5357 0 0 1 -5.5357 5.5357 5.5357 5.5357 0 0 1 -5.5357 -5.5357 5.5357 5.5357 0 0 1 5.5357 -5.5357 5.5357 5.5357 0 0 1 5.5357 5.5357z" opacity="1"/>
<path d="m374.48 1773a5.5357 5.5357 0 0 1 -5.5357 5.5357 5.5357 5.5357 0 0 1 -5.5357 -5.5357 5.5357 5.5357 0 0 1 5.5357 -5.5357 5.5357 5.5357 0 0 1 5.5357 5.5357z" opacity="1"/>
<path d="m485.22 1722.4a5.5357 5.5357 0 0 1 -5.5357 5.5357 5.5357 5.5357 0 0 1 -5.5357 -5.5357 5.5357 5.5357 0 0 1 5.5357 -5.5357 5.5357 5.5357 0 0 1 5.5357 5.5357z" opacity="1"/>
<path d="m164.52 1830.2a5.5357 5.5357 0 0 1 -5.5357 5.5357 5.5357 5.5357 0 0 1 -5.5357 -5.5357 5.5357 5.5357 0 0 1 5.5357 -5.5358 5.5357 5.5357 0 0 1 5.5357 5.5358z" opacity="1"/>
<path d="m302.47 1821.7a5.5357 5.5357 0 0 1 -5.5357 5.5357 5.5357 5.5357 0 0 1 -5.5358 -5.5357 5.5357 5.5357 0 0 1 5.5358 -5.5358 5.5357 5.5357 0 0 1 5.5357 5.5358z" opacity="1"/>
<path d="m247.5 1851.5a5.5357 5.5357 0 0 1 -5.5357 5.5357 5.5357 5.5357 0 0 1 -5.5357 -5.5357 5.5357 5.5357 0 0 1 5.5357 -5.5357 5.5357 5.5357 0 0 1 5.5357 5.5357z" opacity="1"/>
<path d="m296.39 1853.3a5.5357 5.5357 0 0 1 -5.5357 5.5357 5.5357 5.5357 0 0 1 -5.5357 -5.5357 5.5357 5.5357 0 0 1 5.5357 -5.5357 5.5357 5.5357 0 0 1 5.5357 5.5357z" opacity="1"/>
<path d="m366.55 1816.3a5.5357 5.5357 0 0 1 -5.5357 5.5357 5.5357 5.5357 0 0 1 -5.5358 -5.5357 5.5357 5.5357 0 0 1 5.5358 -5.5358 5.5357 5.5357 0 0 1 5.5357 5.5358z" opacity="1"/>
<path d="m424.68 1813.6a5.5357 5.5357 0 0 1 -5.5357 5.5358 5.5357 5.5357 0 0 1 -5.5357 -5.5358 5.5357 5.5357 0 0 1 5.5357 -5.5357 5.5357 5.5357 0 0 1 5.5357 5.5357z" opacity="1"/>
<path d="m447.33 1830.8a5.5357 5.5357 0 0 1 -5.5357 5.5357 5.5357 5.5357 0 0 1 -5.5357 -5.5357 5.5357 5.5357 0 0 1 5.5357 -5.5357 5.5357 5.5357 0 0 1 5.5357 5.5357z" opacity="1"/>
<path d="m516.08 1777.1a5.5357 5.5357 0 0 1 -5.5357 5.5357 5.5357 5.5357 0 0 1 -5.5357 -5.5357 5.5357 5.5357 0 0 1 5.5357 -5.5357 5.5357 5.5357 0 0 1 5.5357 5.5357z" opacity="1"/>
<path d="m536.2 1822.2a5.5357 5.5357 0 0 1 -5.5357 5.5357 5.5357 5.5357 0 0 1 -5.5358 -5.5357 5.5357 5.5357 0 0 1 5.5358 -5.5357 5.5357 5.5357 0 0 1 5.5357 5.5357z" opacity="1"/>
<path d="m414.52 1868.3a5.5357 5.5357 0 0 1 -5.5357 5.5357 5.5357 5.5357 0 0 1 -5.5357 -5.5357 5.5357 5.5357 0 0 1 5.5357 -5.5357 5.5357 5.5357 0 0 1 5.5357 5.5357z" opacity="1"/>
<path d="m509.64 1881.4a5.5357 5.5357 0 0 1 -5.5357 5.5357 5.5357 5.5357 0 0 1 -5.5358 -5.5357 5.5357 5.5357 0 0 1 5.5358 -5.5357 5.5357 5.5357 0 0 1 5.5357 5.5357z" opacity="1"/>
<path d="m362.76 1881.6a5.5357 5.5357 0 0 1 -5.5357 5.5357 5.5357 5.5357 0 0 1 -5.5358 -5.5357 5.5357 5.5357 0 0 1 5.5358 -5.5357 5.5357 5.5357 0 0 1 5.5357 5.5357z" opacity="1"/>
<path d="m191.67 1880.6a5.5357 5.5357 0 0 1 -5.5357 5.5357 5.5357 5.5357 0 0 1 -5.5357 -5.5357 5.5357 5.5357 0 0 1 5.5357 -5.5357 5.5357 5.5357 0 0 1 5.5357 5.5357z" opacity="1"/>
</g>
<g transform="matrix(-1 0 0 1 1920 0)">
<g fill="none" stroke="#ccc">
<path d="m0-274.5 63.64 47.771 58.589 38.891 65.66 40.911 17.678 57.579 10.607 48.992" stroke-width="1px"/>
<path d="m64.145-224.71 58.589-46.972-1.0102 81.822 51.518-29.294-50.508-52.528" stroke-width="1px"/>
<path d="m173.24-219.15 27.274-52.023 106.07 28.789-12.627-36.365" stroke-width="1px"/>
<path d="m306.58-242.39 68.185-28.789 34.345-27.274" stroke-width="1px"/>
<path d="m306.58-242.39 118.69-15.152 96.47-13.132 8.0812-9.0914" stroke-width="1px"/>
<path d="m64.145-224.71-12.627-56.569" stroke-width="1px"/>
<path d="m64.145-224.71 0.50508 72.731 57.074-37.881 114.65 25.759-63.135-55.053 84.853-19.698-57.579-32.325" stroke-width="1px"/>
<path d="m258.09-238.85 55.053 28.284 70.206 47.982 34.345 38.386" stroke-width="1px"/>
<path d="m383.35-162.58 51.013-38.891 23.739-17.678 63.64-51.518" stroke-width="1px"/>
<path d="m456.08-218.14 124.92-56.357l-32.992 62.418z" stroke-width="1px"/>
<path d="m526.29-165.61-31.315 56.569-111.62-53.538z" stroke-width="1px"/>
<path d="m526.29-165.61-70.206-52.528" stroke-width="1px"/>
<path d="m306.58-242.39 149.5 24.244" stroke-width="1px"/>
<path d="m306.58-242.39 70.711 36.871 57.074 0.50508" stroke-width="1px"/>
<path d="m313.15-210.57 64.145 5.0508" stroke-width="1px"/>
<path d="m306.58-242.39 6.566 31.82" stroke-width="1px"/>
<path d="m323.25-97.429-3.5355-52.023-6.566-61.114" stroke-width="1px"/>
<path d="m321.23-150.46 62.124-12.122" stroke-width="1px"/>
<path d="m321.23-150.46-115.66 61.114" stroke-width="1px"/>
<path d="m236.38-164.1-30.81 74.751" stroke-width="1px"/>
<path d="m313.15-210.57-76.772 46.467 84.853 13.637" stroke-width="1px"/>
<path d="m173.24-219.15 139.91 8.5863" stroke-width="1px"/>
<path d="m0-274.5 64.65 122.52" stroke-width="1px"/>
<path d="m64.65-151.98-64.145-46.467 26.264 66.165 37.881-19.698" stroke-width="1px"/>
<path d="m121.72-189.86-37.881 48.992-19.193-11.112-15.657 57.579 35.355-47.477 26.769 13.637 76.772-18.688" stroke-width="1px"/>
<path d="m48.992-94.399 62.124-33.84-18.183 62.629 112.63-23.739-94.449-38.891" stroke-width="1px"/>
<path d="m27.779-26.719 21.213-67.68-46.972-19.698 24.749-18.183" stroke-width="1px"/>
<path d="m2.0203-114.1 25.759 87.378-11.617 58.084z" stroke-width="1px"/>
<path d="m16.162 31.365-18.688-18.183" stroke-width="1px"/>
<path d="m27.779-26.719 65.155-38.891-43.942-28.789" stroke-width="1px"/>
<path d="m92.934-65.61 65.155 51.013 12.122-25.759" stroke-width="1px"/>
<path d="m92.934-65.61 10.607 91.419 54.548-40.406" stroke-width="1px"/>
<path d="m92.934-65.61-15.657 106.57" stroke-width="1px"/>
<path d="m27.779-26.719l49.497 67.68 127.28 45.962" stroke-width="1px"/>
<path d="m16.162 31.365 61.114 9.5964" stroke-width="1px"/>
<path d="m37.376 63.69 39.901-22.728" stroke-width="1px"/>
<path d="m48.487 108.64 28.789-67.68-0.50508 73.236" stroke-width="1px"/>
<path d="m27.779 154.6 20.708-45.962" stroke-width="1px"/>
<path d="m27.779 154.6 48.992-40.406" stroke-width="1px"/>
<path d="m27.779 154.6-26.264-66.165 35.86-24.749-21.213-32.325" stroke-width="1px"/>
<path d="m377.29-205.52 6.0609 42.931" stroke-width="1px"/>
<path d="m427.29-257.54 28.789 39.396" stroke-width="1px"/>
<path d="m27.779 154.6 31.82 76.772 13.637-64.65 30.81-13.637" stroke-width="1px"/>
<path d="m-1.5152 188.44 61.114 42.931 58.084-45.962-1.5152 86.368-56.569-40.406v73.741l53.538-34.345-33.84 48.992-23.234-15.152-63.135-46.467 28.789 69.701 36.871-21.213-15.152 59.599 35.355-48.487 27.779 12.627-63.135 34.85 43.437 25.759 18.688-57.579 77.782-20.203-65.66-44.952 112.13 26.769 82.327 12.122 6.0609 56.063" stroke-width="1px"/>
<path d="m-1.5152 188.44 60.104 118.19" stroke-width=".87221px"/>
<path d="m117.68 185.41 53.389 55.087 25.357-51.429 57.5 30.357-81.786 20.357s139.29 9.2857 137.86 9.2857-80.19 45.943-80.19 45.943l-61.595-54.872-52.047 31.638" stroke-width="1px"/>
<path d="m-5 341.93 48.437 24.302" stroke-width="1px"/>
<path d="m21.718 327.84-26.718 14.084" stroke-width="1px"/>
<path d="m43.437 365.22-19.151 67.422-15.714 58.571-22.5-27.143" stroke-width="1px"/>
<path d="m8.5714 491.21-13.571-149.29" stroke-width="1px"/>
<path d="m-5 341.93 31.071 92.143 43.929 66.071" stroke-width="1px"/>
<path d="m26.071 434.07 60.802-43.092-16.873 109.16l27.143-17.5-10.27-91.664 66.698 53.092-55.714 37.857" stroke-width="1px"/>
<path d="m153.57 444.07 15.357-28.571-2.8571 1.7857" stroke-width="1px"/>
<path d="m86.873 390.98 112.06-21.194 12.143 50" stroke-width="1px"/>
<path d="m183.34 313.2 15.586 56.588-93.368-36.385" stroke-width="1px"/>
<path d="m198.93 369.79 113.21-62.649" stroke-width="1px"/>
<path d="m229.81 295.01-30.881 74.771" stroke-width="1px"/>
<path d="m8.5714 491.21 20 30.714 41.429-21.786z" stroke-width="1px"/>
<path d="m28.571 521.93-53.929 32.5" stroke-width="1px"/>
<path d="m44.643 566.93-66.429-31.786" stroke-width="1px"/>
<path d="m70 500.14-25.357 66.786" stroke-width="1px"/>
<path d="m70 500.14 130.36 45.714" stroke-width="1px"/>
<path d="m70 500.14 3.9286 74.643c-1.4286-0.35714-29.286-7.8571-29.286-7.8571" stroke-width="1px"/>
<path d="m44.643 566.93-22.857 48.214" stroke-width="1px"/>
<path d="m21.786 615.14 52.143-40.357" stroke-width="1px"/>
<path d="m21.786 615.14-31.429-85.357" stroke-width="1px"/>
<path d="m21.786 615.14 33.571 75.714" stroke-width="1px"/>
<path d="m55.357 690.86 12.5-64.643 31.429-15h0.35714l0.35714 0.35715" stroke-width="1px"/>
<path d="m55.357 690.86-27.857 36.429c-0.35714-2.8571-38.571-81.071-38.571-81.071" stroke-width="1px"/>
<path d="m55.357 690.86-66.429-44.643" stroke-width="1px"/>
<path d="m103.54 25.809-26.264 15.152" stroke-width="1px"/>
<path d="m1.5152 88.439 46.972 20.203 28.284 5.5558" stroke-width="1px"/>
<path d="m100.39 770.66-33.203-12.891-11.83-66.908-31.138 79.018-32.031 74.219 51.953-24.609 29.297-11.328-48.047-39.062 19.141 49.609 26.953 65.234 0.39062-76.172" opacity="1" stroke-width="1px"/>
<path d="m201.17 837.06-129.69 46.875-39.062-23.438-24.609 32.812 63.672-9.375" opacity="1" stroke-width="1px"/>
<path d="m32.422 860.5-40.234-16.406" opacity="1" stroke-width="1px"/>
<path d="m71.484 883.94 25 15.234 55.859 40.625 14.844 26.562" opacity="1" stroke-width="1px"/>
<path d="m87.109 990.97 9.375-91.797" opacity="1" stroke-width="1px"/>
<path d="m71.484 883.94 15.625 107.03" opacity="1" stroke-width="1px"/>
<path d="m152.34 939.8-65.234 51.172" opacity="1" stroke-width="1px"/>
<path d="m87.109 990.97-62.891-39.844 47.266-67.188" opacity="1" stroke-width="1px"/>
<path d="m7.8125 893.31 16.406 57.812" opacity="1" stroke-width="1px"/>
<path d="m7.8125 893.31-11.328 145.31" opacity="1" stroke-width="1px"/>
<path d="m24.219 951.12-27.734 87.5" opacity="1" stroke-width="1px"/>
<path d="m-3.5156 1038.6 46.094-19.922-18.359-67.578" opacity="1" stroke-width="1px"/>
<path d="m7.8125 893.31-12.109 17.188" opacity="1" stroke-width="1px"/>
<path d="m42.578 1018.7 44.531-27.734 20.312 63.672" opacity="1" stroke-width="1px"/>
<path d="m203.12 1011.7-95.703 42.969" opacity="1" stroke-width="1px"/>
<path d="m203.12 1011.7 6.6406-47.266" opacity="1" stroke-width="1px"/>
<path d="m87.109 990.97 116.02 20.703" opacity="1" stroke-width="1px"/>
<path d="m317.97 1020.7-3.9062 55.078-110.94-64.062 28.906 77.734 79.297-14.453" opacity="1" stroke-width="1px"/>
<path d="m203.12 1011.7-18.75 62.891-76.953-19.922-64.844-35.938 37.5 46.875 27.344-10.938" opacity="1" stroke-width="1px"/>
<path d="m42.578 1018.7 14.844 60.156-37.109-22.266-23.828-17.969" opacity="1" stroke-width="1px"/>
<path d="m20.312 1056.6-26.562 69.141 63.672-46.875" opacity="1" stroke-width="1px"/>
<path d="m80.078 1065.6-22.656 13.281" opacity="1" stroke-width="1px"/>
<path d="m184.37 1074.6-67.187 39.453-37.109-48.438" opacity="1" stroke-width="1px"/>
<path d="m117.19 1114-59.766-35.156" opacity="1" stroke-width="1px"/>
<path d="m58.984 1151.5-1.5625-72.656-67.188 122.27 67.969-48.047" opacity="1" stroke-width="1px"/>
<path d="m58.203 1153.1l58.984-39.062 114.84-24.609" opacity="1" stroke-width="1px"/>
<path d="m308.59 1135.1-76.563-45.703-63.281 55.078 85.547 19.922-57.422 32.422-25.781-53.516-53.906-29.297" opacity="1" stroke-width="1px"/>
<path d="m115.62 1198 1.5625-83.984" opacity="1" stroke-width="1px"/>
<path d="m115.62 1198-57.422-44.922" opacity="1" stroke-width="1px"/>
<path d="m115.62 1198 55.469-54.688" opacity="1" stroke-width="1px"/>
<path d="m104.69 1231.2-32.422-15.234-13.281-64.453" opacity="1" stroke-width="1px"/>
<path d="m28.906 1227.7 29.297-74.609" opacity="1" stroke-width="1px"/>
<path d="m78.125 1266.8-49.219-39.062 18.359 50.781 30.078-9.375" opacity="1" stroke-width="1px"/>
<path d="m28.906 1227.7-30.078 73.438" opacity="1" stroke-width="1px"/>
<path d="m47.266 1278.5-48.438 22.656" opacity="1" stroke-width="1px"/>
<path d="m47.266 1278.5 28.516 65.625 1.5625-75" opacity="1" stroke-width="1px"/>
<path d="m206.64 1296-130.86 48.047-76.953-42.969" opacity="1" stroke-width="1px"/>
<path d="m35.156 1319.5-21.094 32.422" opacity="1" stroke-width="1px"/>
<path d="m-6.6406 1381.2 20.703-29.297 61.719-7.8125" opacity="1" stroke-width="1px"/>
<path d="m75.781 1344.1 26.562 14.844 55.859 40.625 15.625 26.953" opacity="1" stroke-width="1px"/>
<path d="m158.2 1399.6-65.234 50.781 9.375-91.406" opacity="1" stroke-width="1px"/>
<path d="m75.781 1344.1 17.188 106.25" opacity="1" stroke-width="1px"/>
<path d="m28.516 1409.3 47.266-65.234" opacity="1" stroke-width="1px"/>
<path d="m14.062 1351.9 14.453 57.422" opacity="1" stroke-width="1px"/>
<path d="m28.516 1409.3 64.453 41.016" opacity="1" stroke-width="1px"/>
<path d="m14.062 1351.9-11.719 120.31" opacity="1" stroke-width="1px"/>
<path d="m33.594 1496.8-31.25-24.609" opacity="1" stroke-width="1px"/>
<path d="m28.516 1409.3 5.0781 87.5" opacity="1" stroke-width="1px"/>
<path d="m33.594 1496.8 59.375-46.484 51.562 52.734 26.953-51.172 58.594 30.469-86.328 21.484" opacity="1" stroke-width="1px"/>
<path d="m90.625 1532.4 2.3438-82.031" opacity="1" stroke-width="1px"/>
<path d="m143.75 1503.9 136.72 6.25-72.266 47.656-63.672-54.688-53.906 29.297-57.031-35.547 1.1719 73.047-41.406-75" opacity="1" stroke-width="1px"/>
<path d="m90.625 1532.4-55.859 37.5-46.094-33.984" opacity="1" stroke-width="1px"/>
<path d="m208.2 1557.8-117.58-25.391 66.016 43.359" opacity="1" stroke-width="1px"/>
<path d="m208.2 1557.8-32.422 74.219-19.141-56.25" opacity="1" stroke-width="1px"/>
<path d="m78.125 1594.1 78.516-18.359" opacity="1" stroke-width="1px"/>
<path d="m78.125 1594.1-43.359-24.219" opacity="1" stroke-width="1px"/>
<path d="m56.25 1579.6 34.375-47.266" opacity="1" stroke-width="1px"/>
<path d="m78.125 1594.1 97.656 37.891" opacity="1" stroke-width="1px"/>
<path d="m175.78 1632 9.7656 51.172" opacity="1" stroke-width="1px"/>
<path d="m60.937 1655.8 114.84-23.828" opacity="1" stroke-width="1px"/>
<path d="m60.937 1655.8 17.188-61.719-59.766 34.375 37.891-48.828" opacity="1" stroke-width="1px"/>
<path d="m18.359 1628.5 16.406-58.594-69.141 37.891z" opacity="1" stroke-width="1px"/>
<path d="m18.359 1628.5 42.578 27.344-59.375 42.578" opacity="1" stroke-width="1px"/>
<path d="m18.359 1628.5-16.797 69.922" opacity="1" stroke-width="1px"/>
<path d="m60.937 1655.8 67.578 50.391" opacity="1" stroke-width="1px"/>
<path d="m141.8 1679.6-13.281 26.562" opacity="1" stroke-width="1px"/>
<path d="m128.52 1706.2-33.203 32.422" opacity="1" stroke-width="1px"/>
<path d="m30.469 1705 64.844 33.594" opacity="1" stroke-width="1px"/>
<path d="m67.578 1752.3-0.78125-1.9532-36.328-45.312 16.797 60.938" opacity="1" stroke-width="1px"/>
<path d="m1.5625 1698.4 45.703 67.578-51.172-32.812" opacity="1" stroke-width="1px"/>
<path d="m10.937 1743.3-12.891 32.031" opacity="1" stroke-width="1px"/>
<path d="m-3.125 1800.7 50.391-34.766 20.312-13.672" opacity="1" stroke-width="1px"/>
<path d="m67.578 1752.3 27.734-13.672 92.187-37.891" opacity="1" stroke-width="1px"/>
<path d="m308.2 1708.9-3.9062 52.734-116.8-60.938 31.25 75.391 85.547-14.844" opacity="1" stroke-width="1px"/>
<path d="m187.5 1700.7-14.453 57.812-77.734-19.922" opacity="1" stroke-width="1px"/>
<path d="m67.578 1752.3 36.328 48.438 69.141-42.188" opacity="1" stroke-width="1px"/>
<path d="m103.91 1800.7-56.641-34.766 0.39062 73.047-66.797 47.266 66.406-120.31" opacity="1" stroke-width="1px"/>
<path d="m103.91 1800.7 114.84-24.609 80.859 44.922 4.6875-59.375" opacity="1" stroke-width="1px"/>
<path d="m218.75 1776.1-60.547 55.859-54.297-31.25 4.2969 83.594-60.547-45.312 56.25-38.281" opacity="1" stroke-width="1px"/>
<path d="m47.656 1839-11.719 53.906" opacity="1" stroke-width="1px"/>
<path d="m158.2 1832-50 52.344" opacity="1" stroke-width="1px"/>
<path d="m158.2 1832 141.41-10.938" opacity="1" stroke-width="1px"/>
<path d="m158.2 1832 84.375 19.531 57.031-30.469-8.9844 33.984-11.719 41.016" opacity="1" stroke-width="1px"/>
<path d="m185.94 1881.2-27.734-49.219" opacity="1" stroke-width="1px"/>
<path d="m185.94 1881.2 56.641-29.688" opacity="1" stroke-width="1px"/>
<path d="m185.94 1881.2 105.86-27.734" opacity="1" stroke-width="1px"/>
<path d="m299.61 1821 68.359-45.312" opacity="1" stroke-width="1px"/>
<path d="m367.97 1775.7-63.672-14.062" opacity="1" stroke-width="1px"/>
<path d="m367.97 1775.7 35.156-41.797" opacity="1" stroke-width="1px"/>
<path d="m367.97 1775.7 110.16-53.906" opacity="1" stroke-width="1px"/>
<path d="m478.12 1721.8 32.422 55.469 21.484 46.484 32.969 61.719-122.03-54.688 62.109 51.562-96.094-14.844 33.594-35.547-150.78 21.484 65.625 28.906" opacity="1" stroke-width="1px"/>
<path d="m367.97 1775.7 53.125 39.062 21.875 16.016 67.578-53.516z" opacity="1" stroke-width="1px"/>
<path d="m360.94 1817.5 7.0312-41.797" opacity="1" stroke-width="1px"/>
<path d="m299.61 1821 61.328-3.5157 58.203-4.2968" opacity="1" stroke-width="1px"/>
<path d="m360.94 1817.5-69.141 35.938 117.19 14.062" opacity="1" stroke-width="1px"/>
<path d="m442.58 1832 89.453-8.9844" opacity="1" stroke-width="1px"/>
</g>
<g fill="#ccc">
<path d="m33.036 725.14a5.5357 5.5357 0 0 1 -5.5357 5.5357 5.5357 5.5357 0 0 1 -5.5357 -5.5357 5.5357 5.5357 0 0 1 5.5357 -5.5357 5.5357 5.5357 0 0 1 5.5357 5.5357z"/>
<path d="m-4.4643 648.36a5.5357 5.5357 0 0 1 -5.5357 5.5357 5.5357 5.5357 0 0 1 -5.5357 -5.5357 5.5357 5.5357 0 0 1 5.5357 -5.5357 5.5357 5.5357 0 0 1 5.5357 5.5357z"/>
<path d="m60.179 690.14a5.5357 5.5357 0 0 1 -5.5357 5.5357 5.5357 5.5357 0 0 1 -5.5357 -5.5357 5.5357 5.5357 0 0 1 5.5357 -5.5357 5.5357 5.5357 0 0 1 5.5357 5.5357z"/>
<path d="m72.679 626.21a5.5357 5.5357 0 0 1 -5.5357 5.5357 5.5357 5.5357 0 0 1 -5.5357 -5.5357 5.5357 5.5357 0 0 1 5.5357 -5.5357 5.5357 5.5357 0 0 1 5.5357 5.5357z"/>
<path d="m103.75 611.93a5.5357 5.5357 0 0 1 -5.5357 5.5357 5.5357 5.5357 0 0 1 -5.5357 -5.5357 5.5357 5.5357 0 0 1 5.5357 -5.5357 5.5357 5.5357 0 0 1 5.5357 5.5357z"/>
<path d="m28.75 613.71a5.5357 5.5357 0 0 1 -5.5357 5.5357 5.5357 5.5357 0 0 1 -5.5357 -5.5357 5.5357 5.5357 0 0 1 5.5357 -5.5357 5.5357 5.5357 0 0 1 5.5357 5.5357z"/>
<path d="m76.607 575.5a5.5357 5.5357 0 0 1 -5.5357 5.5357 5.5357 5.5357 0 0 1 -5.5357 -5.5357 5.5357 5.5357 0 0 1 5.5357 -5.5357 5.5357 5.5357 0 0 1 5.5357 5.5357z"/>
<path d="m48.75 564.79a5.5357 5.5357 0 0 1 -5.5357 5.5357 5.5357 5.5357 0 0 1 -5.5357 -5.5357 5.5357 5.5357 0 0 1 5.5357 -5.5357 5.5357 5.5357 0 0 1 5.5357 5.5357z"/>
<path d="m-0.53571 541.93a5.5357 5.5357 0 0 1 -5.5357 5.5357 5.5357 5.5357 0 0 1 -5.5357 -5.5357 5.5357 5.5357 0 0 1 5.5357 -5.5357 5.5357 5.5357 0 0 1 5.5357 5.5357z"/>
<path d="m205.54 546.57a5.5357 5.5357 0 0 1 -5.5357 5.5357 5.5357 5.5357 0 0 1 -5.5357 -5.5357 5.5357 5.5357 0 0 1 5.5357 -5.5357 5.5357 5.5357 0 0 1 5.5357 5.5357z"/>
<path d="m36.25 522.64a5.5357 5.5357 0 0 1 -5.5357 5.5357 5.5357 5.5357 0 0 1 -5.5357 -5.5357 5.5357 5.5357 0 0 1 5.5357 -5.5357 5.5357 5.5357 0 0 1 5.5357 5.5357z"/>
<path d="m13.75 490.86a5.5357 5.5357 0 0 1 -5.5357 5.5357 5.5357 5.5357 0 0 1 -5.5357 -5.5357 5.5357 5.5357 0 0 1 5.5357 -5.5357 5.5357 5.5357 0 0 1 5.5357 5.5357z"/>
<path d="m103.04 483.36a5.5357 5.5357 0 0 1 -5.5357 5.5357 5.5357 5.5357 0 0 1 -5.5357 -5.5357 5.5357 5.5357 0 0 1 5.5357 -5.5357 5.5357 5.5357 0 0 1 5.5357 5.5357z"/>
<path d="m75.536 499.79a5.5357 5.5357 0 0 1 -5.5357 5.5357 5.5357 5.5357 0 0 1 -5.5357 -5.5357 5.5357 5.5357 0 0 1 5.5357 -5.5357 5.5357 5.5357 0 0 1 5.5357 5.5357z"/>
<path d="m30.536 434.07a5.5357 5.5357 0 0 1 -5.5357 5.5357 5.5357 5.5357 0 0 1 -5.5357 -5.5357 5.5357 5.5357 0 0 1 5.5357 -5.5357 5.5357 5.5357 0 0 1 5.5357 5.5357z"/>
<path d="m158.04 443.36a5.5357 5.5357 0 0 1 -5.5357 5.5357 5.5357 5.5357 0 0 1 -5.5357 -5.5357 5.5357 5.5357 0 0 1 5.5357 -5.5357 5.5357 5.5357 0 0 1 5.5357 5.5357z"/>
<path d="m172.68 416.57a5.5357 5.5357 0 0 1 -5.5357 5.5357 5.5357 5.5357 0 0 1 -5.5357 -5.5357 5.5357 5.5357 0 0 1 5.5357 -5.5357 5.5357 5.5357 0 0 1 5.5357 5.5357z"/>
<path d="m203.75 370.14a5.5357 5.5357 0 0 1 -5.5357 5.5357 5.5357 5.5357 0 0 1 -5.5357 -5.5357 5.5357 5.5357 0 0 1 5.5357 -5.5357 5.5357 5.5357 0 0 1 5.5357 5.5357z"/>
<path d="m215.18 418a5.5357 5.5357 0 0 1 -5.5357 5.5357 5.5357 5.5357 0 0 1 -5.5357 -5.5357 5.5357 5.5357 0 0 1 5.5357 -5.5357 5.5357 5.5357 0 0 1 5.5357 5.5357z"/>
<path d="m93.036 392.64a5.5357 5.5357 0 0 1 -5.5357 5.5357 5.5357 5.5357 0 0 1 -5.5357 -5.5357 5.5357 5.5357 0 0 1 5.5357 -5.5357 5.5357 5.5357 0 0 1 5.5357 5.5357z"/>
<path d="m47.679 365.14a5.5357 5.5357 0 0 1 -5.5357 5.5357 5.5357 5.5357 0 0 1 -5.5357 -5.5357 5.5357 5.5357 0 0 1 5.5357 -5.5357 5.5357 5.5357 0 0 1 5.5357 5.5357z"/>
<path d="m324.11 361.93a5.5357 5.5357 0 0 1 -5.5357 5.5357 5.5357 5.5357 0 0 1 -5.5357 -5.5357 5.5357 5.5357 0 0 1 5.5357 -5.5357 5.5357 5.5357 0 0 1 5.5357 5.5357z"/>
<path d="m319.82 308a5.5357 5.5357 0 0 1 -5.5357 5.5357 5.5357 5.5357 0 0 1 -5.5357 -5.5357 5.5357 5.5357 0 0 1 5.5357 -5.5357 5.5357 5.5357 0 0 1 5.5357 5.5357z"/>
<path d="m236.61 294.43a5.5357 5.5357 0 0 1 -5.5357 5.5357 5.5357 5.5357 0 0 1 -5.5357 -5.5357 5.5357 5.5357 0 0 1 5.5357 -5.5357 5.5357 5.5357 0 0 1 5.5357 5.5357z"/>
<path d="m189.46 312.64a5.5357 5.5357 0 0 1 -5.5357 5.5357 5.5357 5.5357 0 0 1 -5.5357 -5.5357 5.5357 5.5357 0 0 1 5.5357 -5.5357 5.5357 5.5357 0 0 1 5.5357 5.5357z"/>
<path d="m111.96 331.21a5.5357 5.5357 0 0 1 -5.5357 5.5357 5.5357 5.5357 0 0 1 -5.5357 -5.5357 5.5357 5.5357 0 0 1 5.5357 -5.5357 5.5357 5.5357 0 0 1 5.5357 5.5357z"/>
<path d="m85.179 318a5.5357 5.5357 0 0 1 -5.5357 5.5357 5.5357 5.5357 0 0 1 -5.5357 -5.5357 5.5357 5.5357 0 0 1 5.5357 -5.5357 5.5357 5.5357 0 0 1 5.5357 5.5357z"/>
<path d="m62.321 305.5a5.5357 5.5357 0 0 1 -5.5357 5.5357 5.5357 5.5357 0 0 1 -5.5357 -5.5357 5.5357 5.5357 0 0 1 5.5357 -5.5357 5.5357 5.5357 0 0 1 5.5357 5.5357z"/>
<path d="m-1.25 259.43a5.5357 5.5357 0 0 1 -5.5357 5.5357 5.5357 5.5357 0 0 1 -5.5357 -5.5357 5.5357 5.5357 0 0 1 5.5357 -5.5357 5.5357 5.5357 0 0 1 5.5357 5.5357z"/>
<path d="m26.607 328a5.5357 5.5357 0 0 1 -5.5357 5.5357 5.5357 5.5357 0 0 1 -5.5357 -5.5357 5.5357 5.5357 0 0 1 5.5357 -5.5357 5.5357 5.5357 0 0 1 5.5357 5.5357z"/>
<path d="m313.75 248a5.5357 5.5357 0 0 1 -5.5357 5.5357 5.5357 5.5357 0 0 1 -5.5357 -5.5357 5.5357 5.5357 0 0 1 5.5357 -5.5357 5.5357 5.5357 0 0 1 5.5357 5.5357z"/>
<path d="m258.04 218.36a5.5357 5.5357 0 0 1 -5.5357 5.5357 5.5357 5.5357 0 0 1 -5.5357 -5.5357 5.5357 5.5357 0 0 1 5.5357 -5.5357 5.5357 5.5357 0 0 1 5.5357 5.5357z"/>
<path d="m202.68 190.14a5.5357 5.5357 0 0 1 -5.5357 5.5357 5.5357 5.5357 0 0 1 -5.5357 -5.5357 5.5357 5.5357 0 0 1 5.5357 -5.5357 5.5357 5.5357 0 0 1 5.5357 5.5357z"/>
<path d="m175.18 240.14a5.5357 5.5357 0 0 1 -5.5357 5.5357 5.5357 5.5357 0 0 1 -5.5357 -5.5357 5.5357 5.5357 0 0 1 5.5357 -5.5357 5.5357 5.5357 0 0 1 5.5357 5.5357z"/>
<path d="m122.32 269.43a5.5357 5.5357 0 0 1 -5.5357 5.5357 5.5357 5.5357 0 0 1 -5.5357 -5.5357 5.5357 5.5357 0 0 1 5.5357 -5.5357 5.5357 5.5357 0 0 1 5.5357 5.5357z"/>
<path d="m64.821 231.93a5.5357 5.5357 0 0 1 -5.5357 5.5357 5.5357 5.5357 0 0 1 -5.5357 -5.5357 5.5357 5.5357 0 0 1 5.5357 -5.5357 5.5357 5.5357 0 0 1 5.5357 5.5357z"/>
<path d="m123.39 186.93a5.5357 5.5357 0 0 1 -5.5357 5.5357 5.5357 5.5357 0 0 1 -5.5357 -5.5357 5.5357 5.5357 0 0 1 5.5357 -5.5357 5.5357 5.5357 0 0 1 5.5357 5.5357z"/>
<path d="m109.11 153.36a5.5357 5.5357 0 0 1 -5.5357 5.5357 5.5357 5.5357 0 0 1 -5.5357 -5.5357 5.5357 5.5357 0 0 1 5.5357 -5.5357 5.5357 5.5357 0 0 1 5.5357 5.5357z"/>
<path d="m76.964 166.93a5.5357 5.5357 0 0 1 -5.5357 5.5357 5.5357 5.5357 0 0 1 -5.5357 -5.5357 5.5357 5.5357 0 0 1 5.5357 -5.5357 5.5357 5.5357 0 0 1 5.5357 5.5357z"/>
<path d="m32.321 155.5a5.5357 5.5357 0 0 1 -5.5357 5.5357 5.5357 5.5357 0 0 1 -5.5357 -5.5357 5.5357 5.5357 0 0 1 5.5357 -5.5357 5.5357 5.5357 0 0 1 5.5357 5.5357z"/>
<path d="m82.321 116.21a5.5357 5.5357 0 0 1 -5.5357 5.5357 5.5357 5.5357 0 0 1 -5.5357 -5.5357 5.5357 5.5357 0 0 1 5.5357 -5.5357 5.5357 5.5357 0 0 1 5.5357 5.5357z"/>
<path d="m54.821 105.86a5.5357 5.5357 0 0 1 -5.5357 5.5357 5.5357 5.5357 0 0 1 -5.5357 -5.5357 5.5357 5.5357 0 0 1 5.5357 -5.5357 5.5357 5.5357 0 0 1 5.5357 5.5357z"/>
<path d="m8.75 85.857a5.5357 5.5357 0 0 1 -5.5357 5.5357 5.5357 5.5357 0 0 1 -5.5357 -5.5357 5.5357 5.5357 0 0 1 5.5357 -5.5357 5.5357 5.5357 0 0 1 5.5357 5.5357z"/>
<path d="m211.25 88.357a5.5357 5.5357 0 0 1 -5.5357 5.5357 5.5357 5.5357 0 0 1 -5.5357 -5.5357 5.5357 5.5357 0 0 1 5.5357 -5.5357 5.5357 5.5357 0 0 1 5.5357 5.5357z"/>
<path d="m41.607 64.071a5.5357 5.5357 0 0 1 -5.5357 5.5357 5.5357 5.5357 0 0 1 -5.5357 -5.5357 5.5357 5.5357 0 0 1 5.5357 -5.5357 5.5357 5.5357 0 0 1 5.5357 5.5357z"/>
<path d="m82.321 41.125a5.5357 5.5357 0 0 1 -5.5357 5.5357 5.5357 5.5357 0 0 1 -5.5357 -5.5357 5.5357 5.5357 0 0 1 5.5357 -5.5357 5.5357 5.5357 0 0 1 5.5357 5.5357z"/>
<path d="m18.75 31.929a5.5357 5.5357 0 0 1 -5.5357 5.5357 5.5357 5.5357 0 0 1 -5.5357 -5.5357 5.5357 5.5357 0 0 1 5.5357 -5.5357 5.5357 5.5357 0 0 1 5.5357 5.5357z"/>
<path d="m108.75 24.429a5.5357 5.5357 0 0 1 -5.5357 5.5357 5.5357 5.5357 0 0 1 -5.5357 -5.5357 5.5357 5.5357 0 0 1 5.5357 -5.5357 5.5357 5.5357 0 0 1 5.5357 5.5357z"/>
<path d="m34.107-25.214a5.5357 5.5357 0 0 1 -5.5357 5.5357 5.5357 5.5357 0 0 1 -5.5357 -5.5357 5.5357 5.5357 0 0 1 5.5357 -5.5357 5.5357 5.5357 0 0 1 5.5357 5.5357z"/>
<path d="m163.75-15.929a5.5357 5.5357 0 0 1 -5.5357 5.5357 5.5357 5.5357 0 0 1 -5.5357 -5.5357 5.5357 5.5357 0 0 1 5.5357 -5.5357 5.5357 5.5357 0 0 1 5.5357 5.5357z"/>
<path d="m177.68-42a5.5357 5.5357 0 0 1 -5.5357 5.5357 5.5357 5.5357 0 0 1 -5.5357 -5.5357 5.5357 5.5357 0 0 1 5.5357 -5.5357 5.5357 5.5357 0 0 1 5.5357 5.5357z"/>
<path d="m220.89-39.857a5.5357 5.5357 0 0 1 -5.5357 5.5357 5.5357 5.5357 0 0 1 -5.5357 -5.5357 5.5357 5.5357 0 0 1 5.5357 -5.5357 5.5357 5.5357 0 0 1 5.5357 5.5357z"/>
<path d="m96.964-66.286a5.5357 5.5357 0 0 1 -5.5357 5.5357 5.5357 5.5357 0 0 1 -5.5357 -5.5357 5.5357 5.5357 0 0 1 5.5357 -5.5357 5.5357 5.5357 0 0 1 5.5357 5.5357z"/>
<path d="m6.9643-115.93a5.5357 5.5357 0 0 1 -5.5357 5.5357 5.5357 5.5357 0 0 1 -5.5357 -5.5357 5.5357 5.5357 0 0 1 5.5357 -5.5357 5.5357 5.5357 0 0 1 5.5357 5.5357z"/>
<path d="m53.393-93.786a5.5357 5.5357 0 0 1 -5.5357 5.5357 5.5357 5.5357 0 0 1 -5.5357 -5.5357 5.5357 5.5357 0 0 1 5.5357 -5.5357 5.5357 5.5357 0 0 1 5.5357 5.5357z"/>
<path d="m8.0357-197a5.5357 5.5357 0 0 1 -5.5357 5.5357 5.5357 5.5357 0 0 1 -5.5357 -5.5357 5.5357 5.5357 0 0 1 5.5357 -5.5357 5.5357 5.5357 0 0 1 5.5357 5.5357z"/>
<path d="m32.321-132a5.5357 5.5357 0 0 1 -5.5357 5.5357 5.5357 5.5357 0 0 1 -5.5357 -5.5357 5.5357 5.5357 0 0 1 5.5357 -5.5357 5.5357 5.5357 0 0 1 5.5357 5.5357z"/>
<path d="m68.393-152.36a5.5357 5.5357 0 0 1 -5.5357 5.5357 5.5357 5.5357 0 0 1 -5.5357 -5.5357 5.5357 5.5357 0 0 1 5.5357 -5.5357 5.5357 5.5357 0 0 1 5.5357 5.5357z"/>
<path d="m91.25-141.64a5.5357 5.5357 0 0 1 -5.5357 5.5357 5.5357 5.5357 0 0 1 -5.5357 -5.5357 5.5357 5.5357 0 0 1 5.5357 -5.5357 5.5357 5.5357 0 0 1 5.5357 5.5357z"/>
<path d="m116.96-127.71a5.5357 5.5357 0 0 1 -5.5357 5.5357 5.5357 5.5357 0 0 1 -5.5357 -5.5357 5.5357 5.5357 0 0 1 5.5357 -5.5357 5.5357 5.5357 0 0 1 5.5357 5.5357z"/>
<path d="m210.89-89.857a5.5357 5.5357 0 0 1 -5.5357 5.5357 5.5357 5.5357 0 0 1 -5.5357 -5.5357 5.5357 5.5357 0 0 1 5.5357 -5.5357 5.5357 5.5357 0 0 1 5.5357 5.5357z"/>
<path d="m193.75-145.93a5.5357 5.5357 0 0 1 -5.5357 5.5357 5.5357 5.5357 0 0 1 -5.5357 -5.5357 5.5357 5.5357 0 0 1 5.5357 -5.5357 5.5357 5.5357 0 0 1 5.5357 5.5357z"/>
<path d="m242.32-164.5a5.5357 5.5357 0 0 1 -5.5357 5.5357 5.5357 5.5357 0 0 1 -5.5357 -5.5357 5.5357 5.5357 0 0 1 5.5357 -5.5357 5.5357 5.5357 0 0 1 5.5357 5.5357z"/>
<path d="m328.75-96.286a5.5357 5.5357 0 0 1 -5.5357 5.5357 5.5357 5.5357 0 0 1 -5.5357 -5.5357 5.5357 5.5357 0 0 1 5.5357 -5.5357 5.5357 5.5357 0 0 1 5.5357 5.5357z"/>
<path d="m324.82-150.57a5.5357 5.5357 0 0 1 -5.5357 5.5357 5.5357 5.5357 0 0 1 -5.5357 -5.5357 5.5357 5.5357 0 0 1 5.5357 -5.5357 5.5357 5.5357 0 0 1 5.5357 5.5357z"/>
<path d="m319.46-209.86a5.5357 5.5357 0 0 1 -5.5357 5.5357 5.5357 5.5357 0 0 1 -5.5357 -5.5357 5.5357 5.5357 0 0 1 5.5357 -5.5357 5.5357 5.5357 0 0 1 5.5357 5.5357z"/>
<path d="m423.39-125.21a5.5357 5.5357 0 0 1 -5.5357 5.5357 5.5357 5.5357 0 0 1 -5.5357 -5.5357 5.5357 5.5357 0 0 1 5.5357 -5.5357 5.5357 5.5357 0 0 1 5.5357 5.5357z"/>
<path d="m390.89-162.36a5.5357 5.5357 0 0 1 -5.5357 5.5357 5.5357 5.5357 0 0 1 -5.5357 -5.5357 5.5357 5.5357 0 0 1 5.5357 -5.5357 5.5357 5.5357 0 0 1 5.5357 5.5357z"/>
<path d="m383.39-204.86a5.5357 5.5357 0 0 1 -5.5357 5.5357 5.5357 5.5357 0 0 1 -5.5357 -5.5357 5.5357 5.5357 0 0 1 5.5357 -5.5357 5.5357 5.5357 0 0 1 5.5357 5.5357z"/>
<path d="m500.89-112a5.5357 5.5357 0 0 1 -5.5357 5.5357 5.5357 5.5357 0 0 1 -5.5357 -5.5357 5.5357 5.5357 0 0 1 5.5357 -5.5357 5.5357 5.5357 0 0 1 5.5357 5.5357z"/>
<path d="m440.54-202.36a5.5357 5.5357 0 0 1 -5.5357 5.5357 5.5357 5.5357 0 0 1 -5.5357 -5.5357 5.5357 5.5357 0 0 1 5.5357 -5.5357 5.5357 5.5357 0 0 1 5.5357 5.5357z"/>
<path d="m531.96-166.29a5.5357 5.5357 0 0 1 -5.5357 5.5357 5.5357 5.5357 0 0 1 -5.5357 -5.5357 5.5357 5.5357 0 0 1 5.5357 -5.5357 5.5357 5.5357 0 0 1 5.5357 5.5357z"/>
<path d="m462.68-219.5a5.5357 5.5357 0 0 1 -5.5357 5.5357 5.5357 5.5357 0 0 1 -5.5357 -5.5357 5.5357 5.5357 0 0 1 5.5357 -5.5357 5.5357 5.5357 0 0 1 5.5357 5.5357z"/>
<path d="m553.39-211.64a5.5357 5.5357 0 0 1 -5.5357 5.5357 5.5357 5.5357 0 0 1 -5.5357 -5.5357 5.5357 5.5357 0 0 1 5.5357 -5.5357 5.5357 5.5357 0 0 1 5.5357 5.5357z"/>
<path d="m584.82-272.71a5.5357 5.5357 0 0 1 -5.5357 5.5357 5.5357 5.5357 0 0 1 -5.5357 -5.5357 5.5357 5.5357 0 0 1 5.5357 -5.5357 5.5357 5.5357 0 0 1 5.5357 5.5357z"/>
<path d="m525.18-270.21a5.5357 5.5357 0 0 1 -5.5357 5.5357 5.5357 5.5357 0 0 1 -5.5357 -5.5357 5.5357 5.5357 0 0 1 5.5357 -5.5357 5.5357 5.5357 0 0 1 5.5357 5.5357z"/>
<path d="m431.61-257.71a5.5357 5.5357 0 0 1 -5.5357 5.5357 5.5357 5.5357 0 0 1 -5.5357 -5.5357 5.5357 5.5357 0 0 1 5.5357 -5.5357 5.5357 5.5357 0 0 1 5.5357 5.5357z"/>
<path d="m378.75-270.57a5.5357 5.5357 0 0 1 -5.5357 5.5357 5.5357 5.5357 0 0 1 -5.5357 -5.5357 5.5357 5.5357 0 0 1 5.5357 -5.5357 5.5357 5.5357 0 0 1 5.5357 5.5357z"/>
<path d="m312.68-241.64a5.5357 5.5357 0 0 1 -5.5357 5.5357 5.5357 5.5357 0 0 1 -5.5357 -5.5357 5.5357 5.5357 0 0 1 5.5357 -5.5357 5.5357 5.5357 0 0 1 5.5357 5.5357z"/>
<path d="m263.04-240.21a5.5357 5.5357 0 0 1 -5.5357 5.5357 5.5357 5.5357 0 0 1 -5.5357 -5.5357 5.5357 5.5357 0 0 1 5.5357 -5.5357 5.5357 5.5357 0 0 1 5.5357 5.5357z"/>
<path d="m208.04-269.5a5.5357 5.5357 0 0 1 -5.5357 5.5357 5.5357 5.5357 0 0 1 -5.5357 -5.5357 5.5357 5.5357 0 0 1 5.5357 -5.5357 5.5357 5.5357 0 0 1 5.5357 5.5357z"/>
<path d="m180.89-219.5a5.5357 5.5357 0 0 1 -5.5357 5.5357 5.5357 5.5357 0 0 1 -5.5357 -5.5357 5.5357 5.5357 0 0 1 5.5357 -5.5357 5.5357 5.5357 0 0 1 5.5357 5.5357z"/>
<path d="m126.96-189.86a5.5357 5.5357 0 0 1 -5.5357 5.5357 5.5357 5.5357 0 0 1 -5.5357 -5.5357 5.5357 5.5357 0 0 1 5.5357 -5.5357 5.5357 5.5357 0 0 1 5.5357 5.5357z"/>
<path d="m128.04-272a5.5357 5.5357 0 0 1 -5.5357 5.5357 5.5357 5.5357 0 0 1 -5.5357 -5.5357 5.5357 5.5357 0 0 1 5.5357 -5.5357 5.5357 5.5357 0 0 1 5.5357 5.5357z"/>
<path d="m69.107-227a5.5357 5.5357 0 0 1 -5.5357 5.5357 5.5357 5.5357 0 0 1 -5.5357 -5.5357 5.5357 5.5357 0 0 1 5.5357 -5.5357 5.5357 5.5357 0 0 1 5.5357 5.5357z"/>
<path d="m6.6071 190.5a5.5357 5.5357 0 0 1 -5.5357 5.5357 5.5357 5.5357 0 0 1 -5.5357 -5.5357 5.5357 5.5357 0 0 1 5.5357 -5.5357 5.5357 5.5357 0 0 1 5.5357 5.5357z"/>
<path d="m8.5714-270.39a5.5357 5.5357 0 0 1 -5.5357 5.5357 5.5357 5.5357 0 0 1 -5.5357 -5.5357 5.5357 5.5357 0 0 1 5.5357 -5.5357 5.5357 5.5357 0 0 1 5.5357 5.5357z"/>
<path d="m60.179 690.14a5.5357 5.5357 0 0 1 -5.5357 5.5357 5.5357 5.5357 0 0 1 -5.5357 -5.5357 5.5357 5.5357 0 0 1 5.5357 -5.5357 5.5357 5.5357 0 0 1 5.5357 5.5357z" opacity="1"/>
<path d="m72.723 756.59a5.5357 5.5357 0 0 1 -5.5357 5.5357 5.5357 5.5357 0 0 1 -5.5357 -5.5357 5.5357 5.5357 0 0 1 5.5357 -5.5357 5.5357 5.5357 0 0 1 5.5357 5.5357z" opacity="1"/>
<path d="m104.75 771.44a5.5357 5.5357 0 0 1 -5.5358 5.5357 5.5357 5.5357 0 0 1 -5.5357 -5.5357 5.5357 5.5357 0 0 1 5.5357 -5.5357 5.5357 5.5357 0 0 1 5.5358 5.5357z" opacity="1"/>
<path d="m29.688 768.9a5.5357 5.5357 0 0 1 -5.5357 5.5357 5.5357 5.5357 0 0 1 -5.5357 -5.5357 5.5357 5.5357 0 0 1 5.5357 -5.5357 5.5357 5.5357 0 0 1 5.5357 5.5357z" opacity="1"/>
<path d="m77.997 808.35a5.5357 5.5357 0 0 1 -5.5357 5.5357 5.5357 5.5357 0 0 1 -5.5357 -5.5357 5.5357 5.5357 0 0 1 5.5357 -5.5357 5.5357 5.5357 0 0 1 5.5357 5.5357z" opacity="1"/>
<path d="m49.676 818.51a5.5357 5.5357 0 0 1 -5.5357 5.5357 5.5357 5.5357 0 0 1 -5.5357 -5.5357 5.5357 5.5357 0 0 1 5.5357 -5.5357 5.5357 5.5357 0 0 1 5.5357 5.5357z" opacity="1"/>
<path d="m-1.4955 843.12a5.5357 5.5357 0 0 1 -5.5357 5.5357 5.5357 5.5357 0 0 1 -5.5357 -5.5357 5.5357 5.5357 0 0 1 5.5357 -5.5357 5.5357 5.5357 0 0 1 5.5357 5.5357z" opacity="1"/>
<path d="m36.523 861.09a5.5357 5.5357 0 0 1 -5.5357 5.5357 5.5357 5.5357 0 0 1 -5.5357 -5.5357 5.5357 5.5357 0 0 1 5.5357 -5.5357 5.5357 5.5357 0 0 1 5.5357 5.5357z" opacity="1"/>
<path d="m76.629 884.13a5.5357 5.5357 0 0 1 -5.5357 5.5357 5.5357 5.5357 0 0 1 -5.5357 -5.5357 5.5357 5.5357 0 0 1 5.5357 -5.5357 5.5357 5.5357 0 0 1 5.5357 5.5357z" opacity="1"/>
<path d="m206.93 836.09a5.5357 5.5357 0 0 1 -5.5357 5.5357 5.5357 5.5357 0 0 1 -5.5357 -5.5357 5.5357 5.5357 0 0 1 5.5357 -5.5357 5.5357 5.5357 0 0 1 5.5357 5.5357z" opacity="1"/>
<path d="m13.739 892.34a5.5357 5.5357 0 0 1 -5.5357 5.5357 5.5357 5.5357 0 0 1 -5.5357 -5.5357 5.5357 5.5357 0 0 1 5.5357 -5.5357 5.5357 5.5357 0 0 1 5.5357 5.5357z" opacity="1"/>
<path d="m102.61 899.56a5.5357 5.5357 0 0 1 -5.5357 5.5357 5.5357 5.5357 0 0 1 -5.5357 -5.5357 5.5357 5.5357 0 0 1 5.5357 -5.5357 5.5357 5.5357 0 0 1 5.5357 5.5357z" opacity="1"/>
<path d="m29.95 949.17a5.5357 5.5357 0 0 1 -5.5357 5.5357 5.5357 5.5357 0 0 1 -5.5357 -5.5357 5.5357 5.5357 0 0 1 5.5357 -5.5357 5.5357 5.5357 0 0 1 5.5357 5.5357z" opacity="1"/>
<path d="m159.25 940.58a5.5357 5.5357 0 0 1 -5.5357 5.5357 5.5357 5.5357 0 0 1 -5.5357 -5.5357 5.5357 5.5357 0 0 1 5.5357 -5.5358 5.5357 5.5357 0 0 1 5.5357 5.5358z" opacity="1"/>
<path d="m172.53 965.77a5.5357 5.5357 0 0 1 -5.5357 5.5357 5.5357 5.5357 0 0 1 -5.5357 -5.5357 5.5357 5.5357 0 0 1 5.5357 -5.5358 5.5357 5.5357 0 0 1 5.5357 5.5358z" opacity="1"/>
<path d="m215.3 964.6a5.5357 5.5357 0 0 1 -5.5357 5.5357 5.5357 5.5357 0 0 1 -5.5357 -5.5357 5.5357 5.5357 0 0 1 5.5357 -5.5357 5.5357 5.5357 0 0 1 5.5357 5.5357z" opacity="1"/>
<path d="m92.45 990.19a5.5357 5.5357 0 0 1 -5.5358 5.5357 5.5357 5.5357 0 0 1 -5.5357 -5.5357 5.5357 5.5357 0 0 1 5.5357 -5.5357 5.5357 5.5357 0 0 1 5.5358 5.5357z" opacity="1"/>
<path d="m47.528 1018.1a5.5357 5.5357 0 0 1 -5.5357 5.5357 5.5357 5.5357 0 0 1 -5.5357 -5.5357 5.5357 5.5357 0 0 1 5.5357 -5.5357 5.5357 5.5357 0 0 1 5.5357 5.5357z" opacity="1"/>
<path d="m112.18 1052.3a5.5357 5.5357 0 0 1 -5.5357 5.5357 5.5357 5.5357 0 0 1 -5.5357 -5.5357 5.5357 5.5357 0 0 1 5.5357 -5.5357 5.5357 5.5357 0 0 1 5.5357 5.5357z" opacity="1"/>
<path d="m208.2 1012.1a5.5357 5.5357 0 0 1 -5.5357 5.5357 5.5357 5.5357 0 0 1 -5.5357 -5.5357 5.5357 5.5357 0 0 1 5.5357 -5.5357 5.5357 5.5357 0 0 1 5.5357 5.5357z" opacity="1"/>
<path d="m86.004 1066a5.5357 5.5357 0 0 1 -5.5357 5.5357 5.5357 5.5357 0 0 1 -5.5357 -5.5357 5.5357 5.5357 0 0 1 5.5357 -5.5357 5.5357 5.5357 0 0 1 5.5357 5.5357z" opacity="1"/>
<path d="m188.54 1073.4a5.5357 5.5357 0 0 1 -5.5357 5.5357 5.5357 5.5357 0 0 1 -5.5357 -5.5357 5.5357 5.5357 0 0 1 5.5357 -5.5357 5.5357 5.5357 0 0 1 5.5357 5.5357z" opacity="1"/>
<path d="m61.59 1078.3a5.5357 5.5357 0 0 1 -5.5357 5.5357 5.5357 5.5357 0 0 1 -5.5357 -5.5357 5.5357 5.5357 0 0 1 5.5357 -5.5357 5.5357 5.5357 0 0 1 5.5357 5.5357z" opacity="1"/>
<path d="m27.02 1056.8a5.5357 5.5357 0 0 1 -5.5357 5.5357 5.5357 5.5357 0 0 1 -5.5357 -5.5357 5.5357 5.5357 0 0 1 5.5357 -5.5357 5.5357 5.5357 0 0 1 5.5357 5.5357z" opacity="1"/>
<path d="m123.24 1114.2a5.5357 5.5357 0 0 1 -5.5357 5.5357 5.5357 5.5357 0 0 1 -5.5357 -5.5357 5.5357 5.5357 0 0 1 5.5357 -5.5357 5.5357 5.5357 0 0 1 5.5357 5.5357z" opacity="1"/>
<path d="m237.18 1089.4a5.5357 5.5357 0 0 1 -5.5357 5.5357 5.5357 5.5357 0 0 1 -5.5357 -5.5357 5.5357 5.5357 0 0 1 5.5357 -5.5357 5.5357 5.5357 0 0 1 5.5357 5.5357z" opacity="1"/>
<path d="m319.79 1074.8a5.5357 5.5357 0 0 1 -5.5357 5.5358 5.5357 5.5357 0 0 1 -5.5357 -5.5358 5.5357 5.5357 0 0 1 5.5357 -5.5357 5.5357 5.5357 0 0 1 5.5357 5.5357z" opacity="1"/>
<path d="m323.5 1021.4a5.5357 5.5357 0 0 1 -5.5358 5.5357 5.5357 5.5357 0 0 1 -5.5357 -5.5357 5.5357 5.5357 0 0 1 5.5357 -5.5357 5.5357 5.5357 0 0 1 5.5358 5.5357z" opacity="1"/>
<path d="m176.04 1143.7a5.5357 5.5357 0 0 1 -5.5357 5.5357 5.5357 5.5357 0 0 1 -5.5357 -5.5357 5.5357 5.5357 0 0 1 5.5357 -5.5358 5.5357 5.5357 0 0 1 5.5357 5.5358z" opacity="1"/>
<path d="m313.54 1134.9a5.5357 5.5357 0 0 1 -5.5357 5.5357 5.5357 5.5357 0 0 1 -5.5357 -5.5357 5.5357 5.5357 0 0 1 5.5357 -5.5357 5.5357 5.5357 0 0 1 5.5357 5.5357z" opacity="1"/>
<path d="m258.47 1164.8a5.5357 5.5357 0 0 1 -5.5357 5.5357 5.5357 5.5357 0 0 1 -5.5357 -5.5357 5.5357 5.5357 0 0 1 5.5357 -5.5357 5.5357 5.5357 0 0 1 5.5357 5.5357z" opacity="1"/>
<path d="m203.39 1193.5a5.5357 5.5357 0 0 1 -5.5357 5.5358 5.5357 5.5357 0 0 1 -5.5358 -5.5358 5.5357 5.5357 0 0 1 5.5358 -5.5357 5.5357 5.5357 0 0 1 5.5357 5.5357z" opacity="1"/>
<path d="m123.11 1196.8a5.5357 5.5357 0 0 1 -5.5357 5.5357 5.5357 5.5357 0 0 1 -5.5357 -5.5357 5.5357 5.5357 0 0 1 5.5357 -5.5357 5.5357 5.5357 0 0 1 5.5357 5.5357z" opacity="1"/>
<path d="m77.246 1215.8a5.5357 5.5357 0 0 1 -5.5357 5.5357 5.5357 5.5357 0 0 1 -5.5357 -5.5357 5.5357 5.5357 0 0 1 5.5357 -5.5358 5.5357 5.5357 0 0 1 5.5357 5.5358z" opacity="1"/>
<path d="m109.64 1229.9a5.5357 5.5357 0 0 1 -5.5357 5.5358 5.5357 5.5357 0 0 1 -5.5358 -5.5358 5.5357 5.5357 0 0 1 5.5358 -5.5357 5.5357 5.5357 0 0 1 5.5357 5.5357z" opacity="1"/>
<path d="m34.124 1228.2a5.5357 5.5357 0 0 1 -5.5357 5.5357 5.5357 5.5357 0 0 1 -5.5357 -5.5357 5.5357 5.5357 0 0 1 5.5357 -5.5358 5.5357 5.5357 0 0 1 5.5357 5.5358z" opacity="1"/>
<path d="m-3.8555 1200.4a5.5357 5.5357 0 0 1 -5.5357 5.5358 5.5357 5.5357 0 0 1 -5.5357 -5.5358 5.5357 5.5357 0 0 1 5.5357 -5.5357 5.5357 5.5357 0 0 1 5.5357 5.5357z" opacity="1"/>
<path d="m82.876 1266.9a5.5357 5.5357 0 0 1 -5.5357 5.5358 5.5357 5.5357 0 0 1 -5.5357 -5.5358 5.5357 5.5357 0 0 1 5.5357 -5.5357 5.5357 5.5357 0 0 1 5.5357 5.5357z" opacity="1"/>
<path d="m52.906 1278.1a5.5357 5.5357 0 0 1 -5.5357 5.5357 5.5357 5.5357 0 0 1 -5.5357 -5.5357 5.5357 5.5357 0 0 1 5.5357 -5.5357 5.5357 5.5357 0 0 1 5.5357 5.5357z" opacity="1"/>
<path d="m4.9833 1300.1a5.5357 5.5357 0 0 1 -5.5357 5.5357 5.5357 5.5357 0 0 1 -5.5357 -5.5357 5.5357 5.5357 0 0 1 5.5357 -5.5357 5.5357 5.5357 0 0 1 5.5357 5.5357z" opacity="1"/>
<path d="m39.924 1321.2a5.5357 5.5357 0 0 1 -5.5357 5.5357 5.5357 5.5357 0 0 1 -5.5357 -5.5357 5.5357 5.5357 0 0 1 5.5357 -5.5357 5.5357 5.5357 0 0 1 5.5357 5.5357z" opacity="1"/>
<path d="m81.633 1342.9a5.5357 5.5357 0 0 1 -5.5357 5.5357 5.5357 5.5357 0 0 1 -5.5357 -5.5357 5.5357 5.5357 0 0 1 5.5357 -5.5357 5.5357 5.5357 0 0 1 5.5357 5.5357z" opacity="1"/>
<path d="m19.208 1351.3a5.5357 5.5357 0 0 1 -5.5357 5.5357 5.5357 5.5357 0 0 1 -5.5357 -5.5357 5.5357 5.5357 0 0 1 5.5357 -5.5357 5.5357 5.5357 0 0 1 5.5357 5.5357z" opacity="1"/>
<path d="m211.79 1295.3a5.5357 5.5357 0 0 1 -5.5357 5.5357 5.5357 5.5357 0 0 1 -5.5357 -5.5357 5.5357 5.5357 0 0 1 5.5357 -5.5357 5.5357 5.5357 0 0 1 5.5357 5.5357z" opacity="1"/>
<path d="m108.07 1358.4a5.5357 5.5357 0 0 1 -5.5357 5.5357 5.5357 5.5357 0 0 1 -5.5358 -5.5357 5.5357 5.5357 0 0 1 5.5358 -5.5357 5.5357 5.5357 0 0 1 5.5357 5.5357z" opacity="1"/>
<path d="m35.223 1408a5.5357 5.5357 0 0 1 -5.5357 5.5357 5.5357 5.5357 0 0 1 -5.5357 -5.5357 5.5357 5.5357 0 0 1 5.5357 -5.5357 5.5357 5.5357 0 0 1 5.5357 5.5357z" opacity="1"/>
<path d="m98.309 1449a5.5357 5.5357 0 0 1 -5.5357 5.5357 5.5357 5.5357 0 0 1 -5.5357 -5.5357 5.5357 5.5357 0 0 1 5.5357 -5.5357 5.5357 5.5357 0 0 1 5.5357 5.5357z" opacity="1"/>
<path d="m164.13 1399.4a5.5357 5.5357 0 0 1 -5.5357 5.5357 5.5357 5.5357 0 0 1 -5.5358 -5.5357 5.5357 5.5357 0 0 1 5.5358 -5.5357 5.5357 5.5357 0 0 1 5.5357 5.5357z" opacity="1"/>
<path d="m177.7 1424.6a5.5357 5.5357 0 0 1 -5.5357 5.5357 5.5357 5.5357 0 0 1 -5.5357 -5.5357 5.5357 5.5357 0 0 1 5.5357 -5.5357 5.5357 5.5357 0 0 1 5.5357 5.5357z" opacity="1"/>
<path d="m38.405 1495.2a5.5357 5.5357 0 0 1 -5.5357 5.5357 5.5357 5.5357 0 0 1 -5.5357 -5.5357 5.5357 5.5357 0 0 1 5.5357 -5.5358 5.5357 5.5357 0 0 1 5.5357 5.5358z" opacity="1"/>
<path d="m8.1597 1472.4a5.5357 5.5357 0 0 1 -5.5357 5.5357 5.5357 5.5357 0 0 1 -5.5357 -5.5357 5.5357 5.5357 0 0 1 5.5357 -5.5358 5.5357 5.5357 0 0 1 5.5357 5.5358z" opacity="1"/>
<path d="m177.89 1451.8a5.5357 5.5357 0 0 1 -5.5357 5.5357 5.5357 5.5357 0 0 1 -5.5357 -5.5357 5.5357 5.5357 0 0 1 5.5357 -5.5357 5.5357 5.5357 0 0 1 5.5357 5.5357z" opacity="1"/>
<path d="m233.12 1481.8a5.5357 5.5357 0 0 1 -5.5357 5.5357 5.5357 5.5357 0 0 1 -5.5358 -5.5357 5.5357 5.5357 0 0 1 5.5358 -5.5357 5.5357 5.5357 0 0 1 5.5357 5.5357z" opacity="1"/>
<path d="m150.69 1502.9a5.5357 5.5357 0 0 1 -5.5358 5.5357 5.5357 5.5357 0 0 1 -5.5357 -5.5357 5.5357 5.5357 0 0 1 5.5357 -5.5357 5.5357 5.5357 0 0 1 5.5358 5.5357z" opacity="1"/>
<path d="m286.44 1510.1a5.5357 5.5357 0 0 1 -5.5357 5.5357 5.5357 5.5357 0 0 1 -5.5357 -5.5357 5.5357 5.5357 0 0 1 5.5357 -5.5357 5.5357 5.5357 0 0 1 5.5357 5.5357z" opacity="1"/>
<path d="m97.239 1532.5a5.5357 5.5357 0 0 1 -5.5357 5.5357 5.5357 5.5357 0 0 1 -5.5357 -5.5357 5.5357 5.5357 0 0 1 5.5357 -5.5357 5.5357 5.5357 0 0 1 5.5357 5.5357z" opacity="1"/>
<path d="m213.8 1557.1a5.5357 5.5357 0 0 1 -5.5358 5.5357 5.5357 5.5357 0 0 1 -5.5357 -5.5357 5.5357 5.5357 0 0 1 5.5357 -5.5358 5.5357 5.5357 0 0 1 5.5358 5.5358z" opacity="1"/>
<path d="m163.27 1575.7a5.5357 5.5357 0 0 1 -5.5358 5.5357 5.5357 5.5357 0 0 1 -5.5357 -5.5357 5.5357 5.5357 0 0 1 5.5357 -5.5357 5.5357 5.5357 0 0 1 5.5358 5.5357z" opacity="1"/>
<path d="m40.29 1568.8a5.5357 5.5357 0 0 1 -5.5357 5.5357 5.5357 5.5357 0 0 1 -5.5357 -5.5357 5.5357 5.5357 0 0 1 5.5357 -5.5358 5.5357 5.5357 0 0 1 5.5357 5.5358z" opacity="1"/>
<path d="m61.774 1580.7a5.5357 5.5357 0 0 1 -5.5357 5.5357 5.5357 5.5357 0 0 1 -5.5357 -5.5357 5.5357 5.5357 0 0 1 5.5357 -5.5357 5.5357 5.5357 0 0 1 5.5357 5.5357z" opacity="1"/>
<path d="m83.704 1594.4a5.5357 5.5357 0 0 1 -5.5357 5.5358 5.5357 5.5357 0 0 1 -5.5357 -5.5358 5.5357 5.5357 0 0 1 5.5357 -5.5357 5.5357 5.5357 0 0 1 5.5357 5.5357z" opacity="1"/>
<path d="m181.21 1633a5.5357 5.5357 0 0 1 -5.5358 5.5357 5.5357 5.5357 0 0 1 -5.5357 -5.5357 5.5357 5.5357 0 0 1 5.5357 -5.5357 5.5357 5.5357 0 0 1 5.5358 5.5357z" opacity="1"/>
<path d="m-27.886 1607.6a5.5357 5.5357 0 0 1 -5.5357 5.5357 5.5357 5.5357 0 0 1 -5.5357 -5.5357 5.5357 5.5357 0 0 1 5.5357 -5.5357 5.5357 5.5357 0 0 1 5.5357 5.5357z" opacity="1"/>
<path d="m23.124 1628.3a5.5357 5.5357 0 0 1 -5.5357 5.5357 5.5357 5.5357 0 0 1 -5.5357 -5.5357 5.5357 5.5357 0 0 1 5.5357 -5.5357 5.5357 5.5357 0 0 1 5.5357 5.5357z" opacity="1"/>
<path d="m67.84 1655.6a5.5357 5.5357 0 0 1 -5.5357 5.5357 5.5357 5.5357 0 0 1 -5.5357 -5.5357 5.5357 5.5357 0 0 1 5.5357 -5.5357 5.5357 5.5357 0 0 1 5.5357 5.5357z" opacity="1"/>
<path d="m190.89 1681.4a5.5357 5.5357 0 0 1 -5.5357 5.5357 5.5357 5.5357 0 0 1 -5.5358 -5.5357 5.5357 5.5357 0 0 1 5.5358 -5.5357 5.5357 5.5357 0 0 1 5.5357 5.5357z" opacity="1"/>
<path d="m147.72 1680.4a5.5357 5.5357 0 0 1 -5.5357 5.5357 5.5357 5.5357 0 0 1 -5.5357 -5.5357 5.5357 5.5357 0 0 1 5.5357 -5.5357 5.5357 5.5357 0 0 1 5.5357 5.5357z" opacity="1"/>
<path d="m134.05 1706a5.5357 5.5357 0 0 1 -5.5357 5.5357 5.5357 5.5357 0 0 1 -5.5357 -5.5357 5.5357 5.5357 0 0 1 5.5357 -5.5357 5.5357 5.5357 0 0 1 5.5357 5.5357z" opacity="1"/>
<path d="m193.82 1699.8a5.5357 5.5357 0 0 1 -5.5358 5.5358 5.5357 5.5357 0 0 1 -5.5357 -5.5358 5.5357 5.5357 0 0 1 5.5357 -5.5357 5.5357 5.5357 0 0 1 5.5358 5.5357z" opacity="1"/>
<path d="m36.786 1705.4a5.5357 5.5357 0 0 1 -5.5357 5.5357 5.5357 5.5357 0 0 1 -5.5357 -5.5357 5.5357 5.5357 0 0 1 5.5357 -5.5357 5.5357 5.5357 0 0 1 5.5357 5.5357z" opacity="1"/>
<path d="m100.85 1738.8a5.5357 5.5357 0 0 1 -5.5357 5.5357 5.5357 5.5357 0 0 1 -5.5357 -5.5357 5.5357 5.5357 0 0 1 5.5357 -5.5357 5.5357 5.5357 0 0 1 5.5357 5.5357z" opacity="1"/>
<path d="m74.872 1752.9a5.5357 5.5357 0 0 1 -5.5357 5.5357 5.5357 5.5357 0 0 1 -5.5357 -5.5357 5.5357 5.5357 0 0 1 5.5357 -5.5357 5.5357 5.5357 0 0 1 5.5357 5.5357z" opacity="1"/>
<path d="m52.606 1765a5.5357 5.5357 0 0 1 -5.5357 5.5357 5.5357 5.5357 0 0 1 -5.5357 -5.5357 5.5357 5.5357 0 0 1 5.5357 -5.5358 5.5357 5.5357 0 0 1 5.5357 5.5358z" opacity="1"/>
<path d="m15.692 1742.7a5.5357 5.5357 0 0 1 -5.5357 5.5357 5.5357 5.5357 0 0 1 -5.5357 -5.5357 5.5357 5.5357 0 0 1 5.5357 -5.5357 5.5357 5.5357 0 0 1 5.5357 5.5357z" opacity="1"/>
<path d="m178.72 1756.8a5.5357 5.5357 0 0 1 -5.5357 5.5357 5.5357 5.5357 0 0 1 -5.5357 -5.5357 5.5357 5.5357 0 0 1 5.5357 -5.5358 5.5357 5.5357 0 0 1 5.5357 5.5358z" opacity="1"/>
<path d="m110.77 1800.4a5.5357 5.5357 0 0 1 -5.5357 5.5357 5.5357 5.5357 0 0 1 -5.5357 -5.5357 5.5357 5.5357 0 0 1 5.5357 -5.5357 5.5357 5.5357 0 0 1 5.5357 5.5357z" opacity="1"/>
<path d="m52.354 1838a5.5357 5.5357 0 0 1 -5.5357 5.5357 5.5357 5.5357 0 0 1 -5.5357 -5.5357 5.5357 5.5357 0 0 1 5.5357 -5.5358 5.5357 5.5357 0 0 1 5.5357 5.5358z" opacity="1"/>
<path d="m-12.418 1885.1a5.5357 5.5357 0 0 1 -5.5357 5.5357 5.5357 5.5357 0 0 1 -5.5357 -5.5357 5.5357 5.5357 0 0 1 5.5357 -5.5358 5.5357 5.5357 0 0 1 5.5357 5.5358z" opacity="1"/>
<path d="m112.71 1883.6a5.5357 5.5357 0 0 1 -5.5357 5.5357 5.5357 5.5357 0 0 1 -5.5357 -5.5357 5.5357 5.5357 0 0 1 5.5357 -5.5358 5.5357 5.5357 0 0 1 5.5357 5.5358z" opacity="1"/>
<path d="m313.99 1707.9a5.5357 5.5357 0 0 1 -5.5357 5.5357 5.5357 5.5357 0 0 1 -5.5357 -5.5357 5.5357 5.5357 0 0 1 5.5357 -5.5358 5.5357 5.5357 0 0 1 5.5357 5.5358z" opacity="1"/>
<path d="m309.05 1761.7a5.5357 5.5357 0 0 1 -5.5357 5.5357 5.5357 5.5357 0 0 1 -5.5357 -5.5357 5.5357 5.5357 0 0 1 5.5357 -5.5357 5.5357 5.5357 0 0 1 5.5357 5.5357z" opacity="1"/>
<path d="m225.65 1775.3a5.5357 5.5357 0 0 1 -5.5357 5.5357 5.5357 5.5357 0 0 1 -5.5357 -5.5357 5.5357 5.5357 0 0 1 5.5357 -5.5357 5.5357 5.5357 0 0 1 5.5357 5.5357z" opacity="1"/>
<path d="m407.29 1734.5a5.5357 5.5357 0 0 1 -5.5357 5.5357 5.5357 5.5357 0 0 1 -5.5357 -5.5357 5.5357 5.5357 0 0 1 5.5357 -5.5357 5.5357 5.5357 0 0 1 5.5357 5.5357z" opacity="1"/>
<path d="m374.48 1773a5.5357 5.5357 0 0 1 -5.5357 5.5357 5.5357 5.5357 0 0 1 -5.5357 -5.5357 5.5357 5.5357 0 0 1 5.5357 -5.5357 5.5357 5.5357 0 0 1 5.5357 5.5357z" opacity="1"/>
<path d="m485.22 1722.4a5.5357 5.5357 0 0 1 -5.5357 5.5357 5.5357 5.5357 0 0 1 -5.5357 -5.5357 5.5357 5.5357 0 0 1 5.5357 -5.5357 5.5357 5.5357 0 0 1 5.5357 5.5357z" opacity="1"/>
<path d="m164.52 1830.2a5.5357 5.5357 0 0 1 -5.5357 5.5357 5.5357 5.5357 0 0 1 -5.5357 -5.5357 5.5357 5.5357 0 0 1 5.5357 -5.5358 5.5357 5.5357 0 0 1 5.5357 5.5358z" opacity="1"/>
<path d="m302.47 1821.7a5.5357 5.5357 0 0 1 -5.5357 5.5357 5.5357 5.5357 0 0 1 -5.5358 -5.5357 5.5357 5.5357 0 0 1 5.5358 -5.5358 5.5357 5.5357 0 0 1 5.5357 5.5358z" opacity="1"/>
<path d="m247.5 1851.5a5.5357 5.5357 0 0 1 -5.5357 5.5357 5.5357 5.5357 0 0 1 -5.5357 -5.5357 5.5357 5.5357 0 0 1 5.5357 -5.5357 5.5357 5.5357 0 0 1 5.5357 5.5357z" opacity="1"/>
<path d="m296.39 1853.3a5.5357 5.5357 0 0 1 -5.5357 5.5357 5.5357 5.5357 0 0 1 -5.5357 -5.5357 5.5357 5.5357 0 0 1 5.5357 -5.5357 5.5357 5.5357 0 0 1 5.5357 5.5357z" opacity="1"/>
<path d="m366.55 1816.3a5.5357 5.5357 0 0 1 -5.5357 5.5357 5.5357 5.5357 0 0 1 -5.5358 -5.5357 5.5357 5.5357 0 0 1 5.5358 -5.5358 5.5357 5.5357 0 0 1 5.5357 5.5358z" opacity="1"/>
<path d="m424.68 1813.6a5.5357 5.5357 0 0 1 -5.5357 5.5358 5.5357 5.5357 0 0 1 -5.5357 -5.5358 5.5357 5.5357 0 0 1 5.5357 -5.5357 5.5357 5.5357 0 0 1 5.5357 5.5357z" opacity="1"/>
<path d="m447.33 1830.8a5.5357 5.5357 0 0 1 -5.5357 5.5357 5.5357 5.5357 0 0 1 -5.5357 -5.5357 5.5357 5.5357 0 0 1 5.5357 -5.5357 5.5357 5.5357 0 0 1 5.5357 5.5357z" opacity="1"/>
<path d="m516.08 1777.1a5.5357 5.5357 0 0 1 -5.5357 5.5357 5.5357 5.5357 0 0 1 -5.5357 -5.5357 5.5357 5.5357 0 0 1 5.5357 -5.5357 5.5357 5.5357 0 0 1 5.5357 5.5357z" opacity="1"/>
<path d="m536.2 1822.2a5.5357 5.5357 0 0 1 -5.5357 5.5357 5.5357 5.5357 0 0 1 -5.5358 -5.5357 5.5357 5.5357 0 0 1 5.5358 -5.5357 5.5357 5.5357 0 0 1 5.5357 5.5357z" opacity="1"/>
<path d="m414.52 1868.3a5.5357 5.5357 0 0 1 -5.5357 5.5357 5.5357 5.5357 0 0 1 -5.5357 -5.5357 5.5357 5.5357 0 0 1 5.5357 -5.5357 5.5357 5.5357 0 0 1 5.5357 5.5357z" opacity="1"/>
<path d="m509.64 1881.4a5.5357 5.5357 0 0 1 -5.5357 5.5357 5.5357 5.5357 0 0 1 -5.5358 -5.5357 5.5357 5.5357 0 0 1 5.5358 -5.5357 5.5357 5.5357 0 0 1 5.5357 5.5357z" opacity="1"/>
<path d="m362.76 1881.6a5.5357 5.5357 0 0 1 -5.5357 5.5357 5.5357 5.5357 0 0 1 -5.5358 -5.5357 5.5357 5.5357 0 0 1 5.5358 -5.5357 5.5357 5.5357 0 0 1 5.5357 5.5357z" opacity="1"/>
<path d="m191.67 1880.6a5.5357 5.5357 0 0 1 -5.5357 5.5357 5.5357 5.5357 0 0 1 -5.5357 -5.5357 5.5357 5.5357 0 0 1 5.5357 -5.5357 5.5357 5.5357 0 0 1 5.5357 5.5357z" opacity="1"/>
</g>
</g>
</g>
</svg>
