<?xml version="1.0" encoding="UTF-8" standalone="no"?>
<!-- Generator: Adobe Illustrator 19.0.0, SVG Export Plug-In . SVG Version: 6.00 Build 0)  -->

<svg
   xmlns:dc="http://purl.org/dc/elements/1.1/"
   xmlns:cc="http://creativecommons.org/ns#"
   xmlns:rdf="http://www.w3.org/1999/02/22-rdf-syntax-ns#"
   xmlns:svg="http://www.w3.org/2000/svg"
   xmlns="http://www.w3.org/2000/svg"
   xmlns:sodipodi="http://sodipodi.sourceforge.net/DTD/sodipodi-0.dtd"
   xmlns:inkscape="http://www.inkscape.org/namespaces/inkscape"
   version="1.1"
   id="Layer_1"
   x="0px"
   y="0px"
   viewBox="0 0 512 512"
   style="enable-background:new 0 0 512 512;"
   xml:space="preserve"
   sodipodi:docname="coding.svg"
   inkscape:version="0.92.3 (2405546, 2018-03-11)"><metadata
   id="metadata5027"><rdf:RDF><cc:Work
       rdf:about=""><dc:format>image/svg+xml</dc:format><dc:type
         rdf:resource="http://purl.org/dc/dcmitype/StillImage" /><dc:title></dc:title></cc:Work></rdf:RDF></metadata><defs
   id="defs5025" /><sodipodi:namedview
   pagecolor="#ffffff"
   bordercolor="#666666"
   borderopacity="1"
   objecttolerance="10"
   gridtolerance="10"
   guidetolerance="10"
   inkscape:pageopacity="0"
   inkscape:pageshadow="2"
   inkscape:window-width="1920"
   inkscape:window-height="991"
   id="namedview5023"
   showgrid="false"
   inkscape:zoom="1.0606602"
   inkscape:cx="379.11559"
   inkscape:cy="228.63391"
   inkscape:window-x="-11"
   inkscape:window-y="-11"
   inkscape:window-maximized="1"
   inkscape:current-layer="g4990" />
<g
   id="g4990">
	
	
	
	
	
	<g
   id="g5079"
   transform="matrix(0.98065472,0,0,1.0002018,4.9519014,-0.0516608)"><path
     id="path4950"
     d="M 361.931,494.345 H 150.069 c 0,-19.5 15.81,-35.31 35.31,-35.31 H 326.62 c 19.501,-0.001 35.311,15.81 35.311,35.31"
     style="fill:none;stroke:#000000;stroke-width:10;stroke-miterlimit:4;stroke-dasharray:none;stroke-opacity:1"
     inkscape:connector-curvature="0" /><polygon
     id="polygon4952"
     points="300.138,388.414 317.793,459.034 194.207,459.034 211.862,388.414 "
     style="fill:none;stroke:#000000;stroke-width:10;stroke-miterlimit:4;stroke-dasharray:none;stroke-opacity:1" /><path
     id="path4954"
     d="M 512,317.793 H 0 V 48.552 C 0,31.488 13.833,17.655 30.897,17.655 h 450.207 c 17.064,0 30.897,13.833 30.897,30.897 v 269.241 z"
     style="fill:none;fill-opacity:1;stroke:#000000;stroke-width:10;stroke-miterlimit:4;stroke-dasharray:none;stroke-opacity:1"
     inkscape:connector-curvature="0" /><path
     id="path4956"
     d="M 481.103,388.414 H 30.897 C 13.833,388.414 0,374.581 0,357.517 v -39.724 h 512 v 39.724 c 0,17.064 -13.833,30.897 -30.897,30.897"
     style="fill:none;stroke:#000000;stroke-width:10;stroke-miterlimit:4;stroke-dasharray:none;stroke-opacity:1"
     inkscape:connector-curvature="0" /><g
     style="fill:#d21222;fill-opacity:1"
     id="g4986">
		<path
   id="path4958"
   d="M 432.552,282.483 H 300.138 c -4.882,0 -8.828,-3.955 -8.828,-8.828 0,-4.873 3.946,-8.828 8.828,-8.828 h 132.414 c 4.882,0 8.828,3.955 8.828,8.828 -10e-4,4.873 -3.947,8.828 -8.828,8.828"
   style="fill:#d21222;fill-opacity:1"
   inkscape:connector-curvature="0" />
		<path
   id="path4960"
   d="M 167.724,229.517 H 79.448 c -4.882,0 -8.828,-3.955 -8.828,-8.828 0,-4.873 3.946,-8.828 8.828,-8.828 h 88.276 c 4.882,0 8.828,3.955 8.828,8.828 0,4.873 -3.946,8.828 -8.828,8.828"
   style="fill:#d21222;fill-opacity:1"
   inkscape:connector-curvature="0" />
		<path
   id="path4962"
   d="M 388.414,229.517 H 256 c -4.882,0 -8.828,-3.955 -8.828,-8.828 0,-4.873 3.946,-8.828 8.828,-8.828 h 132.414 c 4.882,0 8.828,3.955 8.828,8.828 -0.001,4.873 -3.947,8.828 -8.828,8.828"
   style="fill:#d21222;fill-opacity:1"
   inkscape:connector-curvature="0" />
		<path
   id="path4964"
   d="m 211.862,229.517 c -1.148,0 -2.295,-0.265 -3.354,-0.706 -1.148,-0.441 -2.03,-1.059 -2.913,-1.854 -1.598,-1.677 -2.56,-3.884 -2.56,-6.268 0,-2.384 0.962,-4.59 2.56,-6.268 0.883,-0.794 1.766,-1.412 2.913,-1.854 3.169,-1.324 7.15,-0.618 9.622,1.854 1.589,1.677 2.56,3.972 2.56,6.268 0,2.295 -0.971,4.59 -2.56,6.268 -1.678,1.589 -3.973,2.56 -6.268,2.56"
   style="fill:#d21222;fill-opacity:1"
   inkscape:connector-curvature="0" />
		<path
   id="path4966"
   d="M 256,282.483 H 123.586 c -4.882,0 -8.828,-3.955 -8.828,-8.828 0,-4.873 3.946,-8.828 8.828,-8.828 H 256 c 4.882,0 8.828,3.955 8.828,8.828 0,4.873 -3.946,8.828 -8.828,8.828"
   style="fill:#d21222;fill-opacity:1"
   inkscape:connector-curvature="0" />
		<path
   id="path4968"
   d="m 79.448,282.483 c -1.148,0 -2.295,-0.265 -3.354,-0.706 -1.059,-0.441 -2.03,-1.059 -2.913,-1.854 -1.598,-1.677 -2.56,-3.884 -2.56,-6.268 0,-1.148 0.265,-2.295 0.706,-3.354 0.441,-1.148 1.059,-2.03 1.854,-2.913 2.119,-2.03 5.12,-2.913 7.936,-2.383 0.627,0.088 1.148,0.265 1.686,0.53 0.521,0.177 1.059,0.441 1.501,0.794 0.521,0.353 0.971,0.706 1.412,1.059 0.794,0.883 1.412,1.766 1.854,2.913 0.441,1.059 0.706,2.207 0.706,3.354 0,2.383 -0.971,4.59 -2.56,6.268 -0.441,0.353 -0.892,0.706 -1.412,1.059 -0.441,0.353 -0.98,0.618 -1.501,0.794 -0.538,0.265 -1.059,0.441 -1.686,0.53 -0.521,0.088 -1.139,0.177 -1.669,0.177"
   style="fill:#d21222;fill-opacity:1"
   inkscape:connector-curvature="0" />
		<path
   id="path4970"
   d="m 432.552,229.517 c -0.538,0 -1.148,-0.088 -1.677,-0.177 -0.618,-0.088 -1.148,-0.265 -1.677,-0.53 -0.53,-0.177 -1.059,-0.441 -1.598,-0.794 -0.433,-0.353 -0.874,-0.706 -1.315,-1.059 -1.598,-1.677 -2.56,-3.972 -2.56,-6.268 0,-2.295 0.962,-4.59 2.56,-6.268 l 1.315,-1.059 c 0.539,-0.353 1.068,-0.618 1.598,-0.794 0.53,-0.265 1.059,-0.441 1.677,-0.53 2.825,-0.618 5.906,0.353 7.945,2.383 0.353,0.441 0.706,0.883 1.059,1.412 0.353,0.441 0.609,0.971 0.794,1.501 0.265,0.53 0.441,1.059 0.521,1.677 0.097,0.53 0.185,1.148 0.185,1.677 0,0.529 -0.088,1.148 -0.185,1.766 -0.079,0.53 -0.256,1.059 -0.521,1.589 -0.185,0.53 -0.441,1.059 -0.794,1.589 -0.353,0.441 -0.706,0.883 -1.059,1.324 -0.441,0.353 -0.892,0.706 -1.324,1.059 -0.53,0.353 -1.068,0.618 -1.589,0.794 -0.538,0.265 -1.059,0.441 -1.686,0.53 -0.522,0.09 -1.14,0.178 -1.669,0.178"
   style="fill:#d21222;fill-opacity:1"
   inkscape:connector-curvature="0" />
		<path
   id="path4972"
   d="M 432.552,123.586 H 300.138 c -4.882,0 -8.828,-3.955 -8.828,-8.828 0,-4.873 3.946,-8.828 8.828,-8.828 h 132.414 c 4.882,0 8.828,3.955 8.828,8.828 0,4.873 -3.947,8.828 -8.828,8.828"
   style="fill:#d21222;fill-opacity:1"
   inkscape:connector-curvature="0" />
		<path
   id="path4974"
   d="m 432.552,176.552 h -88.276 c -4.882,0 -8.828,-3.955 -8.828,-8.828 0,-4.873 3.946,-8.828 8.828,-8.828 h 88.276 c 4.882,0 8.828,3.955 8.828,8.828 0,4.873 -3.947,8.828 -8.828,8.828"
   style="fill:#d21222;fill-opacity:1"
   inkscape:connector-curvature="0" />
		<path
   id="path4976"
   d="M 273.655,176.552 H 256 c -4.882,0 -8.828,-3.955 -8.828,-8.828 0,-4.873 3.946,-8.828 8.828,-8.828 h 17.655 c 4.882,0 8.828,3.955 8.828,8.828 0,4.873 -3.946,8.828 -8.828,8.828"
   style="fill:#d21222;fill-opacity:1"
   inkscape:connector-curvature="0" />
		<path
   id="path4978"
   d="M 388.414,70.621 H 256 c -4.882,0 -8.828,-3.955 -8.828,-8.828 0,-4.873 3.946,-8.828 8.828,-8.828 h 132.414 c 4.882,0 8.828,3.955 8.828,8.828 0,4.873 -3.947,8.828 -8.828,8.828"
   style="fill:#d21222;fill-opacity:1"
   inkscape:connector-curvature="0" />
		<path
   id="path4980"
   d="m 432.552,70.621 c -0.538,0 -1.148,-0.088 -1.677,-0.177 -0.618,-0.088 -1.148,-0.265 -1.677,-0.53 -0.53,-0.177 -1.059,-0.441 -1.598,-0.794 -0.433,-0.353 -0.874,-0.706 -1.315,-1.059 -1.598,-1.677 -2.56,-3.972 -2.56,-6.268 0,-2.295 0.962,-4.59 2.56,-6.268 l 1.315,-1.059 c 0.539,-0.353 1.068,-0.618 1.598,-0.794 0.53,-0.265 1.059,-0.441 1.677,-0.53 2.825,-0.618 5.906,0.353 7.945,2.383 0.353,0.441 0.706,0.883 1.059,1.412 0.353,0.441 0.609,0.971 0.794,1.501 0.265,0.53 0.441,1.059 0.521,1.677 0.097,0.53 0.185,1.148 0.185,1.677 0,0.529 -0.088,1.148 -0.185,1.766 -0.079,0.53 -0.256,1.059 -0.521,1.589 -0.185,0.53 -0.441,1.059 -0.794,1.589 -0.353,0.441 -0.706,0.883 -1.059,1.324 -0.441,0.353 -0.892,0.706 -1.324,1.059 -0.53,0.353 -1.068,0.618 -1.589,0.794 -0.538,0.265 -1.059,0.441 -1.686,0.53 -0.522,0.089 -1.14,0.178 -1.669,0.178"
   style="fill:#d21222;fill-opacity:1"
   inkscape:connector-curvature="0" />
		<path
   id="path4982"
   d="m 264.828,123.586 c -2.295,0 -4.599,-0.971 -6.268,-2.56 -0.794,-0.883 -1.412,-1.854 -1.854,-2.913 -0.442,-1.059 -0.706,-2.207 -0.706,-3.354 0,-1.148 0.265,-2.295 0.706,-3.354 0.441,-1.059 1.059,-2.03 1.854,-2.913 2.03,-2.03 5.12,-2.913 7.936,-2.383 0.627,0.088 1.148,0.265 1.686,0.53 0.521,0.177 1.059,0.441 1.501,0.794 0.521,0.353 0.971,0.706 1.324,1.059 0.883,0.883 1.501,1.854 1.942,2.913 0.441,1.059 0.706,2.207 0.706,3.354 0,1.148 -0.265,2.295 -0.706,3.354 -0.441,1.059 -1.059,2.03 -1.942,2.913 -0.353,0.353 -0.803,0.706 -1.324,1.059 -0.441,0.353 -0.98,0.618 -1.501,0.794 -0.538,0.265 -1.059,0.441 -1.686,0.53 -0.521,0.089 -1.139,0.177 -1.668,0.177"
   style="fill:#d21222;fill-opacity:1"
   inkscape:connector-curvature="0" />
		<path
   id="path4984"
   d="m 308.966,176.552 c -2.392,0 -4.599,-0.971 -6.268,-2.56 -1.598,-1.677 -2.56,-3.972 -2.56,-6.268 0,-2.295 0.962,-4.59 2.56,-6.268 3.266,-3.266 9.269,-3.266 12.535,0 1.589,1.677 2.56,3.972 2.56,6.268 0,0.618 -0.088,1.148 -0.185,1.766 -0.079,0.53 -0.256,1.059 -0.521,1.589 -0.185,0.53 -0.441,1.059 -0.794,1.589 -0.353,0.441 -0.706,0.883 -1.059,1.324 -1.678,1.589 -3.885,2.56 -6.268,2.56"
   style="fill:#d21222;fill-opacity:1"
   inkscape:connector-curvature="0" />
	</g><polygon
     id="polygon4988"
     points="79.448,52.966 79.448,176.552 203.034,176.552 203.034,52.966 "
     style="fill:#d21222;fill-opacity:1" /></g>
</g>
<g
   id="g4992">
</g>
<g
   id="g4994">
</g>
<g
   id="g4996">
</g>
<g
   id="g4998">
</g>
<g
   id="g5000">
</g>
<g
   id="g5002">
</g>
<g
   id="g5004">
</g>
<g
   id="g5006">
</g>
<g
   id="g5008">
</g>
<g
   id="g5010">
</g>
<g
   id="g5012">
</g>
<g
   id="g5014">
</g>
<g
   id="g5016">
</g>
<g
   id="g5018">
</g>
<g
   id="g5020">
</g>
</svg>