<?xml version="1.0" encoding="UTF-8" standalone="no"?>
<!-- Generator: Adobe Illustrator 19.0.0, SVG Export Plug-In . SVG Version: 6.00 Build 0)  -->

<svg
   xmlns:dc="http://purl.org/dc/elements/1.1/"
   xmlns:cc="http://creativecommons.org/ns#"
   xmlns:rdf="http://www.w3.org/1999/02/22-rdf-syntax-ns#"
   xmlns:svg="http://www.w3.org/2000/svg"
   xmlns="http://www.w3.org/2000/svg"
   xmlns:sodipodi="http://sodipodi.sourceforge.net/DTD/sodipodi-0.dtd"
   xmlns:inkscape="http://www.inkscape.org/namespaces/inkscape"
   version="1.1"
   id="Layer_1"
   x="0px"
   y="0px"
   viewBox="0 0 511.997 511.997"
   style="enable-background:new 0 0 511.997 511.997;"
   xml:space="preserve"
   sodipodi:docname="html5.svg"
   inkscape:version="0.92.3 (2405546, 2018-03-11)"><metadata
   id="metadata2819"><rdf:RDF><cc:Work
       rdf:about=""><dc:format>image/svg+xml</dc:format><dc:type
         rdf:resource="http://purl.org/dc/dcmitype/StillImage" /></cc:Work></rdf:RDF></metadata><defs
   id="defs2817" /><sodipodi:namedview
   pagecolor="#ffffff"
   bordercolor="#666666"
   borderopacity="1"
   objecttolerance="10"
   gridtolerance="10"
   guidetolerance="10"
   inkscape:pageopacity="0"
   inkscape:pageshadow="2"
   inkscape:window-width="1920"
   inkscape:window-height="991"
   id="namedview2815"
   showgrid="false"
   inkscape:zoom="1.5000088"
   inkscape:cx="255.9985"
   inkscape:cy="255.9985"
   inkscape:window-x="-11"
   inkscape:window-y="-11"
   inkscape:window-maximized="1"
   inkscape:current-layer="Layer_1" />
<path
   style="fill:#d21222;fill-opacity:1"
   d="M38.238,0c-4.706,0-8.212,3.835-7.794,8.521l39.671,444.978c0.418,4.687,4.468,9.552,9.004,10.811  l168.344,46.742c4.535,1.259,11.954,1.259,16.49,0.003l168.856-46.819c4.535-1.258,8.59-6.122,9.007-10.808L481.553,8.521  C481.974,3.835,478.464,0,473.758,0H38.238z M397.068,102.054c-0.375,4.18-1.023,11.437-1.441,16.124l-1.045,11.675  c-0.421,4.685-1.02,11.386-1.336,14.889c-0.315,3.504-0.614,6.371-0.669,6.371c-0.053,0-3.948,0-8.653,0H264.554  c-4.706,0-8.595,0-8.646,0s-3.944,0-8.65,0H184.39c-4.706,0-8.212,3.835-7.794,8.521l3.667,40.99  c0.418,4.685,4.612,8.521,9.317,8.521h57.679c4.706,0,8.598,0,8.65,0s3.941,0,8.646,0h99.142c4.706,0,11.988,0,16.182,0  c4.191,0,7.312,3.421,6.932,7.601c-0.382,4.18-1.034,11.439-1.451,16.124L373.569,365.02c-0.421,4.687-0.953,10.674-1.182,13.306  c-0.234,2.63-4.134,5.811-8.669,7.069l-99.474,27.582c-4.535,1.256-8.302,2.296-8.373,2.312c-0.07,0.015-3.836-1.003-8.373-2.26  l-99.58-27.632c-4.535-1.258-8.587-6.122-9.004-10.809l-6.41-71.945c-0.418-4.687,3.092-8.522,7.798-8.522h9.088  c4.706,0,12.406,0,17.111,0h13.552c4.706,0,8.896,3.835,9.317,8.522l2.514,28.164c0.418,4.687,4.475,9.524,9.019,10.751  l46.579,12.579c4.541,1.227,8.275,2.231,8.296,2.231c0.021,0,3.753-1.006,8.296-2.233l46.663-12.609  c4.541-1.227,8.602-6.066,9.023-10.751l5.06-56.427c0.421-4.687-3.085-8.522-7.791-8.522h-52.474c-4.706,0-8.595,0-8.646,0  s-3.944,0-8.65,0H137.765c-4.706,0-8.896-3.836-9.314-8.521l-12.416-139.126c-0.418-4.687-1.066-11.942-1.441-16.124  c-0.371-4.18,3.172-7.601,7.878-7.601h124.787c4.706,0,8.598,0,8.65,0s3.941,0,8.646,0h124.636  C393.896,94.452,397.441,97.872,397.068,102.054z"
   id="path2782" />
<g
   id="g2784">
</g>
<g
   id="g2786">
</g>
<g
   id="g2788">
</g>
<g
   id="g2790">
</g>
<g
   id="g2792">
</g>
<g
   id="g2794">
</g>
<g
   id="g2796">
</g>
<g
   id="g2798">
</g>
<g
   id="g2800">
</g>
<g
   id="g2802">
</g>
<g
   id="g2804">
</g>
<g
   id="g2806">
</g>
<g
   id="g2808">
</g>
<g
   id="g2810">
</g>
<g
   id="g2812">
</g>
</svg>