<?xml version="1.0" encoding="UTF-8" standalone="no"?>
<svg
   xmlns:dc="http://purl.org/dc/elements/1.1/"
   xmlns:cc="http://creativecommons.org/ns#"
   xmlns:rdf="http://www.w3.org/1999/02/22-rdf-syntax-ns#"
   xmlns:svg="http://www.w3.org/2000/svg"
   xmlns="http://www.w3.org/2000/svg"
   xmlns:sodipodi="http://sodipodi.sourceforge.net/DTD/sodipodi-0.dtd"
   xmlns:inkscape="http://www.inkscape.org/namespaces/inkscape"
   xml:space="preserve"
   version="1.1"
   overflow="visible"
   viewBox="0 0 512 512"
   id="svg8199"
   sodipodi:docname="w3c_logo.svg"
   inkscape:version="0.92.3 (2405546, 2018-03-11)"
   width="512"
   height="512"
   style="overflow:visible"><metadata
   id="metadata8205"><rdf:RDF><cc:Work
       rdf:about=""><dc:format>image/svg+xml</dc:format><dc:type
         rdf:resource="http://purl.org/dc/dcmitype/StillImage" /><dc:title></dc:title></cc:Work></rdf:RDF></metadata><defs
   id="defs8203" /><sodipodi:namedview
   pagecolor="#ffffff"
   bordercolor="#666666"
   borderopacity="1"
   objecttolerance="10"
   gridtolerance="10"
   guidetolerance="10"
   inkscape:pageopacity="0"
   inkscape:pageshadow="2"
   inkscape:window-width="1920"
   inkscape:window-height="991"
   id="namedview8201"
   showgrid="false"
   inkscape:zoom="0.79521453"
   inkscape:cx="-2.8006433"
   inkscape:cy="226.73948"
   inkscape:window-x="-11"
   inkscape:window-y="-11"
   inkscape:window-maximized="1"
   inkscape:current-layer="g8197" />
  <g
   id="g8197"
   style="image-rendering:optimizeQuality;shape-rendering:geometricPrecision;text-rendering:geometricPrecision"
   transform="translate(0,464)">
    
  <g
   id="g8264"
   transform="matrix(3.504088,0,0,3.504088,-550.38377,86.483005)"><path
     inkscape:connector-curvature="0"
     style="overflow:visible;fill:#d21222;fill-opacity:1;stroke:none;stroke-width:1.62539685;image-rendering:optimizeQuality;shape-rendering:geometricPrecision;text-rendering:geometricPrecision"
     id="path8139"
     d="m 195.80226,-122.55525 13.86789,47.151144 13.86788,-47.151144 h 0.3007 9.741 27.5586 v 4.68602 l -14.15395,24.387454 c 4.97371,1.59614 8.73488,4.49748 11.28513,8.70563 2.54862,4.20815 3.82618,9.14773 3.82618,14.82199 0,7.01522 -1.86433,12.91378 -5.59461,17.69407 -3.73191,4.78192 -8.56097,7.17288 -14.49041,7.17288 -4.46334,0 -8.35292,-1.41897 -11.66873,-4.25529 -3.31581,-2.83632 -5.77016,-6.67713 -7.36467,-11.52406 l 7.84254,-3.2508 c 1.14915,2.93384 2.66402,5.24516 4.54461,6.93395 1.88058,1.69041 4.096,2.53399 6.64625,2.53399 2.67702,0 4.94283,-1.49699 6.7909,-4.49422 1.84971,-2.99561 2.77456,-6.59911 2.77456,-10.80889 0,-4.65514 -0.98825,-8.25702 -2.96473,-10.80564 -2.29831,-2.99723 -5.90019,-4.49585 -10.80889,-4.49585 h -3.82456 v -4.59012 l 13.39002,-23.145654 H 231.2034 l -0.91997,1.56526 -19.65593,66.337324 h -0.95573 l -14.34575,-48.01097 -14.34738,48.01097 h -0.95573 l -22.95386,-77.468044 h 10.04171 l 13.86788,47.151144 9.37204,-31.752134 -4.59012,-15.39901 z" /><path
     inkscape:connector-curvature="0"
     style="overflow:visible;fill:#d21222;fill-opacity:1;stroke-width:1.62539685;image-rendering:optimizeQuality;shape-rendering:geometricPrecision;text-rendering:geometricPrecision"
     id="path8190"
     d="m 301.01419,-122.99248 1.62702,9.88891 -5.75878,11.01694 c 0,0 -2.21054,-4.67464 -5.88393,-7.26227 -3.09476,-2.17966 -5.11025,-2.65265 -8.2619,-2.00249 -4.04723,0.83383 -8.63736,5.67589 -10.64147,11.642724 -2.39746,7.14037 -2.42022,10.59596 -2.50311,13.77036 -0.13491,5.08912 0.66804,8.0961 0.66804,8.0961 0,0 -3.49461,-6.46745 -3.46372,-15.94189 0.0228,-6.760024 1.08414,-12.894274 4.21465,-18.944004 2.7518,-5.32155 6.84292,-8.51383 10.47406,-8.88929 3.75466,-0.38847 6.72101,1.42222 9.01282,3.38082 2.40559,2.05613 4.84043,6.55198 4.84043,6.55198 z" /><path
     inkscape:connector-curvature="0"
     style="overflow:visible;fill:#d21222;fill-opacity:1;stroke-width:1.62539685;image-rendering:optimizeQuality;shape-rendering:geometricPrecision;text-rendering:geometricPrecision"
     id="path8192"
     d="m 301.72449,-67.031686 c 0,0 -2.54537,4.54786 -4.13176,6.30003 -1.58639,1.75381 -4.4227,4.84044 -7.92869,6.38456 -3.50435,1.54413 -5.34105,1.83508 -8.80477,1.50187 -3.45884,-0.33483 -6.6755,-2.33732 -7.80353,-3.17115 -1.1264,-0.83545 -4.0066,-3.2963 -5.63363,-5.59136 -1.62702,-2.29506 -4.17239,-6.88519 -4.17239,-6.88519 0,0 1.41897,4.59988 2.30481,6.55198 0.51038,1.12315 2.08051,4.56086 4.30893,7.55159 2.07726,2.79081 6.11312,7.59386 12.24737,8.67962 6.13424,1.08414 10.3489,-1.66928 11.3924,-2.33732 1.04351,-0.66804 3.24104,-2.50636 4.63238,-3.99522 1.45311,-1.55388 2.82657,-3.53687 3.58888,-4.72666 0.55588,-0.86796 1.45961,-2.62826 1.45961,-2.62826 z" /></g></g>
</svg>