<?xml version="1.0" encoding="UTF-8" standalone="no"?>
<!-- Generator: Adobe Illustrator 16.0.0, SVG Export Plug-In . SVG Version: 6.00 Build 0)  -->

<svg
   xmlns:dc="http://purl.org/dc/elements/1.1/"
   xmlns:cc="http://creativecommons.org/ns#"
   xmlns:rdf="http://www.w3.org/1999/02/22-rdf-syntax-ns#"
   xmlns:svg="http://www.w3.org/2000/svg"
   xmlns="http://www.w3.org/2000/svg"
   xmlns:sodipodi="http://sodipodi.sourceforge.net/DTD/sodipodi-0.dtd"
   xmlns:inkscape="http://www.inkscape.org/namespaces/inkscape"
   version="1.1"
   id="Capa_1"
   x="0px"
   y="0px"
   width="90.195px"
   height="90.195px"
   viewBox="0 0 90.195 90.195"
   style="enable-background:new 0 0 90.195 90.195;"
   xml:space="preserve"
   sodipodi:docname="wordpress-logo-of-a-letter-in-a-circle.svg"
   inkscape:version="0.92.3 (2405546, 2018-03-11)"><metadata
   id="metadata2631"><rdf:RDF><cc:Work
       rdf:about=""><dc:format>image/svg+xml</dc:format><dc:type
         rdf:resource="http://purl.org/dc/dcmitype/StillImage" /></cc:Work></rdf:RDF></metadata><defs
   id="defs2629" /><sodipodi:namedview
   pagecolor="#ffffff"
   bordercolor="#666666"
   borderopacity="1"
   objecttolerance="10"
   gridtolerance="10"
   guidetolerance="10"
   inkscape:pageopacity="0"
   inkscape:pageshadow="2"
   inkscape:window-width="1920"
   inkscape:window-height="991"
   id="namedview2627"
   showgrid="false"
   inkscape:zoom="8.5148844"
   inkscape:cx="44.157969"
   inkscape:cy="45.0975"
   inkscape:window-x="-11"
   inkscape:window-y="-11"
   inkscape:window-maximized="1"
   inkscape:current-layer="g2594" />
<g
   id="g2594">
	<path
   id="WordPress__x28_alt_x29_"
   d="M5.182,23.154C12.688,9.154,27.74,0,45.098,0C56.334,0,66.6,4.788,74.484,11.546   c-2.253-0.436-4.713,0.054-7.189,1.471c-5.801,3.326-7.696,12.74-0.176,17.468c4.696,2.935,6.367,10.283,6.209,14.771   c-0.154,4.495-10.916,25.139-10.916,25.139L51.934,34.414c0,0-0.361-2.524-0.361-3.252c0-0.918,0.303-2.042,0.869-2.684   c0.391-0.427,0.986-1.324,1.69-1.324h4.966v-4h-27v4h0.837c0.884,0,1.749,1.189,2.583,2.043c0.986,1.018,2.227,4.848,3.73,8.821   l3.926,12.933l-8.461,19.552L25.43,31.426c0,0,0.274-2.678,0.835-3.133c0.366-0.313,0.928-1.139,1.578-1.139h0.255v-4H5.182z    M10.475,29.945c0,0-2.184-2.791-4.502-2.791H3.621c-2.269,5-3.523,11.715-3.523,17.87c0,18.514,11.354,34.393,27.529,41.159   L10.475,29.945z M83.822,22.798c0.855,4.057,0.678,8.979-0.99,14.393c-4.351,14.086-15.121,39.428-19.291,49.081   c15.652-6.988,26.557-22.591,26.557-40.729C90.098,37.235,87.804,29.46,83.822,22.798z M46.007,60.835L34.501,88.938   c3.398,0.814,6.944,1.258,10.596,1.258c3.781,0,7.449-0.469,10.957-1.34L46.007,60.835z"
   style="fill:#d21222;fill-opacity:1" />
</g>
<g
   id="g2596">
</g>
<g
   id="g2598">
</g>
<g
   id="g2600">
</g>
<g
   id="g2602">
</g>
<g
   id="g2604">
</g>
<g
   id="g2606">
</g>
<g
   id="g2608">
</g>
<g
   id="g2610">
</g>
<g
   id="g2612">
</g>
<g
   id="g2614">
</g>
<g
   id="g2616">
</g>
<g
   id="g2618">
</g>
<g
   id="g2620">
</g>
<g
   id="g2622">
</g>
<g
   id="g2624">
</g>
</svg>